<svg version="1.1" id="Layer_1" xmlns="http://www.w3.org/2000/svg" xmlns:xlink="http://www.w3.org/1999/xlink" x="0px" y="0px"
	 width="100%" viewBox="0 0 1920 1080" enable-background="new 0 0 1920 1080" xml:space="preserve">
<path fill="#FFFFFF" opacity="1.000000" stroke="none" 
	d="
M1751.000000,1081.000000 
	C1167.333496,1081.000000 584.166870,1081.000000 1.000235,1081.000000 
	C1.000157,721.000183 1.000157,361.000336 1.000078,1.000380 
	C640.999695,1.000253 1280.999390,1.000253 1920.999268,1.000127 
	C1920.999512,360.999634 1920.999512,720.999268 1920.999756,1080.999512 
	C1864.500000,1081.000000 1808.000000,1081.000000 1751.000000,1081.000000 
M1042.028564,496.618469 
	C1041.170288,493.755463 1040.257690,490.907410 1039.466187,488.026062 
	C1038.146362,483.221832 1035.291382,480.119568 1030.167114,479.595490 
	C1025.053345,479.072479 1021.600586,481.680298 1019.150024,485.854828 
	C1017.214539,489.151855 1015.431458,492.538025 1013.557983,495.871857 
	C1009.284668,503.476044 1004.997375,511.072418 1000.426147,519.186035 
	C999.570801,517.741455 999.065063,516.923096 998.593506,516.085510 
	C992.883789,505.943665 987.188477,495.793701 981.468506,485.657623 
	C979.040222,481.354523 975.477478,479.008362 970.391785,479.644623 
	C965.294006,480.282410 962.515015,483.529907 961.125610,488.223053 
	C958.153687,498.261688 955.158997,508.293671 952.225159,518.343445 
	C950.245056,525.126160 948.352844,531.934570 946.300354,539.157349 
	C951.380066,539.157349 955.873047,538.923279 960.327698,539.235596 
	C963.554871,539.461853 964.512451,538.133118 965.225464,535.227966 
	C967.736450,524.997803 970.574524,514.847900 973.602722,503.488800 
	C979.179260,514.003296 984.230225,523.455322 989.208313,532.945618 
	C991.423523,537.168762 994.240417,540.136292 999.522888,540.290771 
	C1004.912964,540.448425 1008.297546,538.029236 1010.654053,533.478699 
	C1014.934570,525.212830 1019.281494,516.981201 1023.624939,508.748077 
	C1024.319458,507.431549 1025.140015,506.181458 1026.473999,503.939758 
	C1028.258545,510.260651 1029.676758,515.283813 1031.011108,520.010315 
	C1037.127075,520.010315 1042.583496,520.010315 1048.615112,520.010315 
	C1047.646973,516.531433 1046.767578,513.371887 1046.434570,509.589172 
	C1052.779175,514.563599 1060.123413,515.936829 1067.981567,515.845093 
	C1078.140747,515.726501 1088.302856,515.829041 1098.463379,515.882446 
	C1101.219482,515.896912 1103.973389,516.877747 1103.374146,519.991211 
	C1103.069824,521.571411 1100.477661,522.991150 1098.631836,523.895508 
	C1097.416504,524.490845 1095.687622,524.051697 1094.188721,524.051941 
	C1074.865845,524.055359 1055.542725,524.011475 1036.220459,524.125488 
	C1034.423584,524.136169 1032.024048,524.591980 1030.949707,525.783630 
	C1027.325073,529.804016 1024.172119,534.249573 1020.433533,539.053345 
	C1021.769287,539.122253 1022.392700,539.182495 1023.016052,539.182556 
	C1047.669434,539.184631 1072.322998,539.236328 1096.975830,539.117920 
	C1100.602051,539.100464 1104.312988,538.627869 1107.831299,537.750366 
	C1117.127808,535.431824 1121.362671,529.316345 1121.069336,519.294189 
	C1120.828613,511.075867 1116.417847,506.363312 1106.950684,504.558044 
	C1104.191895,504.032013 1101.325928,503.908630 1098.506836,503.885956 
	C1088.679443,503.806946 1078.851074,503.863525 1069.023071,503.840088 
	C1067.529297,503.836548 1065.805542,504.118256 1064.602539,503.483124 
	C1063.213867,502.749969 1061.208130,500.926239 1061.403564,499.972198 
	C1061.710083,498.476929 1063.437378,496.943298 1064.943115,496.128906 
	C1066.120239,495.492340 1067.874390,495.886047 1069.372070,495.884705 
	C1081.365601,495.873993 1093.359375,495.911407 1105.352417,495.837677 
	C1106.929321,495.827972 1109.141113,495.827637 1109.968506,494.875549 
	C1113.734863,490.541168 1117.111328,485.868042 1120.667480,481.265533 
	C1119.873291,480.771820 1119.612061,480.467346 1119.350952,480.467377 
	C1101.363159,480.469208 1083.369995,480.236359 1065.389771,480.615784 
	C1054.427002,480.847137 1045.430054,484.682678 1042.880371,496.954803 
	C1042.821045,497.240631 1042.471558,497.466187 1042.028564,496.618469 
M845.831116,519.381348 
	C839.029968,525.250549 832.228882,531.119751 825.427795,536.988953 
	C825.020935,536.644958 824.614075,536.300903 824.207275,535.956909 
	C827.988403,528.401917 831.769592,520.846924 835.777100,512.839722 
	C831.895630,512.667603 828.709778,512.526245 824.734497,512.349915 
	C830.514709,501.360596 835.867920,491.183075 841.381470,480.700745 
	C828.837830,480.700745 817.069031,480.700745 805.128784,480.700745 
	C805.128784,500.252411 805.128784,519.536682 805.128784,538.899658 
	C820.195801,538.899658 835.130493,539.306152 850.028564,538.742493 
	C858.542969,538.420410 866.088989,534.625061 872.081604,528.276794 
	C885.886536,513.652344 879.603333,489.126556 860.358643,483.842346 
	C856.418640,491.320740 852.441467,498.869873 848.036987,507.229919 
	C852.037292,507.229919 855.087524,507.229919 858.137695,507.229919 
	C858.291504,507.581146 858.445312,507.932373 858.599121,508.283600 
	C854.523132,511.830414 850.447144,515.377197 845.831116,519.381348 
M942.623413,480.681396 
	C922.714050,480.681396 902.804688,480.681396 882.769043,480.681396 
	C882.769043,485.880341 882.769043,490.753632 882.769043,495.592010 
	C903.066101,495.592010 922.965576,495.592010 943.092224,495.592010 
	C943.092224,490.669891 943.092224,486.029144 942.623413,480.681396 
M882.662659,538.567688 
	C887.106689,538.774719 891.550049,539.139343 895.994934,539.160278 
	C911.600586,539.233643 927.206726,539.188721 943.010132,539.188721 
	C943.010132,533.966370 943.010132,529.202148 943.010132,524.435913 
	C922.774475,524.435913 902.748413,524.435913 882.425476,524.435913 
	C882.425476,529.121277 882.425476,533.428284 882.662659,538.567688 
M904.499939,516.238220 
	C917.265808,516.238220 930.031738,516.238220 942.911499,516.238220 
	C942.911499,511.556183 942.911499,507.338409 942.911499,503.070435 
	C922.706116,503.070435 902.807739,503.070435 882.737305,503.070435 
	C882.737305,507.519165 882.737305,511.709473 882.737305,516.237854 
	C889.901733,516.237854 896.700928,516.237854 904.499939,516.238220 
M1119.344604,592.989258 
	C1119.344604,588.168823 1119.344604,583.348389 1119.344604,578.045166 
	C1110.897095,577.866028 1113.763916,587.315308 1108.979736,589.640198 
	C1104.433350,587.098328 1107.303467,577.880615 1099.226807,578.047913 
	C1099.226807,584.690125 1099.226807,590.605530 1099.226807,596.968506 
	C1105.492798,595.951111 1100.917358,590.420227 1103.786499,587.969299 
	C1104.812256,590.284607 1105.678101,592.570190 1106.838013,594.695374 
	C1107.307861,595.556091 1108.349487,596.424194 1109.264038,596.601379 
	C1109.802002,596.705627 1110.816528,595.576721 1111.241089,594.797729 
	C1112.305420,592.844604 1113.155884,590.775024 1114.092163,588.752136 
	C1114.531860,588.846558 1114.971436,588.940979 1115.411011,589.035400 
	C1115.411011,590.742126 1115.228149,592.476807 1115.483154,594.144531 
	C1115.624023,595.065857 1116.498779,595.874939 1117.042847,596.734680 
	C1117.809570,595.772217 1118.576416,594.809692 1119.344604,592.989258 
M808.694946,594.954285 
	C808.694946,592.688171 808.694946,590.422058 808.694946,588.156006 
	C810.847595,590.208923 811.648193,592.357666 812.695862,594.378479 
	C813.171448,595.295715 814.392090,596.729370 814.828735,596.584595 
	C815.879395,596.235840 816.907410,595.238220 817.507202,594.239685 
	C818.553406,592.497925 819.270569,590.558472 820.125610,588.701904 
	C821.298279,590.562988 821.129211,592.193298 821.535522,593.664551 
	C821.848206,594.796753 822.884705,595.729065 823.599365,596.750305 
	C824.216492,595.796448 825.333313,594.859924 825.367249,593.885742 
	C825.545776,588.758545 825.450806,583.621887 825.450806,577.995300 
	C817.025940,577.942078 819.675354,587.157898 814.967896,589.701111 
	C810.495544,586.963684 813.277710,578.128723 804.962891,577.896301 
	C804.962891,583.724976 804.861145,589.179199 805.001831,594.627136 
	C805.083984,597.809082 806.806152,597.091248 808.694946,594.954285 
M934.830627,582.437073 
	C933.573059,579.885498 932.869995,576.427307 928.392334,578.699646 
	C928.392334,583.813538 928.257263,588.963623 928.502441,594.095459 
	C928.553467,595.163879 930.011414,596.165161 930.820923,597.197449 
	C931.235840,596.919922 931.650757,596.642456 932.065735,596.364990 
	C932.259583,593.880310 932.453491,591.395569 932.647400,588.910889 
	C934.637329,590.630493 935.386353,592.577759 936.388367,594.384827 
	C936.896606,595.301331 938.098022,596.731873 938.570923,596.585815 
	C939.612854,596.264099 940.657715,595.238159 941.221252,594.230957 
	C942.360901,592.193542 943.181030,589.977295 944.697266,586.564880 
	C945.690857,596.301025 945.690857,596.301025 948.824768,596.255798 
	C948.824768,590.321228 948.824768,584.381958 948.824768,577.879639 
	C940.673279,578.438538 943.158325,587.469910 938.296143,590.445801 
	C937.220215,587.999329 936.154907,585.577148 934.830627,582.437073 
M883.009216,558.080811 
	C881.355896,555.593872 879.849060,552.987610 877.971436,550.683350 
	C877.293030,549.850830 875.709717,549.406372 874.571106,549.460022 
	C874.075806,549.483459 873.294617,551.199646 873.270264,552.162903 
	C873.140381,557.291260 873.209106,562.424683 873.209106,567.782043 
	C874.624084,567.782043 875.810181,567.782043 876.894958,567.782043 
	C877.178772,564.655823 877.431152,561.876953 877.697510,558.943115 
	C883.066162,560.633484 882.298462,568.961060 889.341797,567.927246 
	C889.341797,563.614075 889.563293,559.790771 889.259033,556.009766 
	C889.075134,553.724915 888.075317,551.505615 887.442017,549.256897 
	C886.767578,551.489319 886.190369,553.758057 885.376587,555.938477 
	C884.987549,556.980835 884.149963,557.855774 883.009216,558.080811 
M1044.938843,565.628601 
	C1046.581299,566.600647 1048.223755,567.572693 1050.656860,569.012573 
	C1050.656860,562.401428 1050.804443,557.423340 1050.552246,552.465576 
	C1050.489746,551.234924 1049.132568,550.070129 1048.370361,548.875061 
	C1047.906860,549.124695 1047.443359,549.374268 1046.979858,549.623901 
	C1046.771729,552.906250 1046.563477,556.188538 1046.355347,559.470886 
	C1043.233765,556.708618 1041.334106,553.665527 1039.129395,550.862427 
	C1038.451904,550.001038 1036.852539,549.290955 1035.839844,549.465637 
	C1035.147217,549.585083 1034.310547,551.343323 1034.277466,552.392273 
	C1034.116333,557.488159 1034.204590,562.591919 1034.204590,568.077209 
	C1035.834106,567.925903 1037.020142,567.815796 1038.104858,567.715088 
	C1038.273682,564.159790 1038.422363,561.031494 1038.570923,557.903137 
	C1038.913818,557.856201 1039.256714,557.809265 1039.599609,557.762329 
	C1041.244385,560.187073 1042.889160,562.611755 1044.938843,565.628601 
M1101.154419,555.159058 
	C1101.551514,554.589233 1101.948608,554.019409 1102.345581,553.449585 
	C1100.218872,552.023193 1098.261108,549.873352 1095.928467,549.328796 
	C1091.733887,548.349548 1087.875000,549.959961 1085.880859,553.966431 
	C1083.901978,557.942139 1084.106689,562.075500 1087.310547,565.525696 
	C1090.132324,568.564453 1095.761230,569.269592 1099.268921,566.978149 
	C1102.493896,564.871460 1104.390015,562.022766 1103.165039,557.617920 
	C1101.807739,557.617920 1100.638062,557.469604 1099.521362,557.649780 
	C1097.418945,557.989014 1095.347046,558.517578 1093.262451,558.967468 
	C1095.108032,559.874573 1096.953491,560.781677 1098.778564,561.678650 
	C1096.980347,564.949524 1094.516113,565.946350 1091.630493,564.099670 
	C1088.412598,562.040466 1088.091675,558.916931 1089.498169,555.786499 
	C1091.004761,552.433472 1093.868042,552.083496 1097.033813,553.473511 
	C1098.199951,553.985535 1099.323730,554.594299 1101.154419,555.159058 
M850.247131,592.175720 
	C850.957153,593.703735 851.667175,595.231750 852.377197,596.759766 
	C852.996765,595.316406 853.867493,593.923645 854.171082,592.416626 
	C854.534241,590.614319 854.412537,588.714294 854.512512,586.610779 
	C859.754211,588.894409 859.196838,596.864746 866.189575,596.717957 
	C866.189575,590.285156 866.189575,584.353394 866.189575,578.197693 
	C865.243286,578.150024 863.771301,577.985779 863.752502,578.088013 
	C863.136841,581.445618 862.660645,584.828796 862.147156,588.321411 
	C857.115112,586.027039 857.762207,577.760986 850.247192,578.048035 
	C850.247192,582.667847 850.247192,586.961182 850.247131,592.175720 
M901.090210,586.197998 
	C900.459167,586.766052 899.828064,587.334106 899.196960,587.902161 
	C901.009094,588.614563 902.821228,589.326904 904.925476,590.154053 
	C903.589722,593.703674 900.867432,594.008850 897.843933,592.906738 
	C894.784058,591.791260 893.462341,587.485535 895.167358,584.420410 
	C896.861938,581.374023 899.404053,580.393433 902.722717,581.923828 
	C904.419250,582.706238 906.159546,583.393860 908.997253,584.598572 
	C905.879639,578.131653 901.092285,576.385437 896.027039,578.643616 
	C891.520081,580.652771 889.399597,585.937317 891.149719,590.798218 
	C892.839539,595.491455 897.980713,597.965820 902.930725,596.468201 
	C907.894531,594.966492 909.806519,591.407959 908.352600,586.185669 
	C906.232788,586.185669 904.077454,586.185669 901.090210,586.197998 
M985.197693,584.671997 
	C985.197693,582.562927 985.197693,580.453857 985.197693,577.532104 
	C977.962036,579.215637 983.529785,585.628784 980.335022,588.058105 
	C975.812622,585.821594 976.507996,577.822205 969.100525,578.000061 
	C969.100525,583.613586 969.002319,588.918091 969.198364,594.211609 
	C969.230530,595.079468 970.557434,595.899414 971.285828,596.741577 
	C971.839905,595.913696 972.805237,595.117432 972.871765,594.252136 
	C973.079651,591.546936 972.948120,588.815674 972.948120,585.752625 
	C978.140991,588.603577 977.653809,596.739807 985.197144,596.642822 
	C985.197144,592.572693 985.197144,589.091492 985.197693,584.671997 
M957.094360,555.655151 
	C957.094360,559.042419 957.094360,562.429688 957.094360,565.889465 
	C953.916077,565.370361 951.536316,564.981689 948.905090,564.551941 
	C948.905090,560.328918 949.022461,556.178894 948.816467,552.044983 
	C948.769348,551.099854 947.607300,550.210205 946.958435,549.294983 
	C946.283997,550.177185 945.057922,551.039978 945.026001,551.944824 
	C944.840271,557.210449 944.935181,562.485901 944.935181,567.560669 
	C950.529724,567.560669 955.678955,567.560669 960.927368,567.560669 
	C960.927368,561.642700 960.927368,555.717651 960.927368,549.680603 
	C955.349854,548.375549 957.687134,552.629822 957.094360,555.655151 
M810.250488,568.118164 
	C818.312073,567.810852 822.050659,564.200012 821.298645,557.447510 
	C820.565674,550.865295 814.980347,548.188721 805.177185,549.776306 
	C805.177185,555.841858 805.177185,561.917847 805.177185,568.118896 
	C806.784912,568.118896 808.112671,568.118896 810.250488,568.118164 
M917.017395,566.264465 
	C918.505371,567.023438 919.993347,567.782410 921.481323,568.541382 
	C921.704712,568.194946 921.928101,567.848572 922.151489,567.502136 
	C921.010498,565.379089 919.869507,563.256042 918.728516,561.133057 
	C919.269714,561.138245 919.810974,561.143494 920.352173,561.148682 
	C920.810120,558.226501 922.586609,554.584839 921.463013,552.525452 
	C918.773254,547.595154 913.455139,549.533508 908.373657,549.389343 
	C908.373657,555.155579 908.234497,560.577209 908.509888,565.977783 
	C908.556030,566.882996 910.398621,567.696472 911.947388,569.005615 
	C912.367737,565.521606 912.607727,563.532715 912.847717,561.543762 
	C913.208374,561.453308 913.568970,561.362793 913.929565,561.272339 
	C914.849976,562.718628 915.770325,564.164978 917.017395,566.264465 
M1081.574341,566.431641 
	C1080.622070,564.720154 1079.669800,563.008667 1078.717529,561.297180 
	C1079.258423,561.289856 1079.799316,561.282593 1080.340210,561.275269 
	C1080.691895,558.199158 1082.398804,554.282593 1081.118774,552.218323 
	C1078.271118,547.625732 1073.060303,549.459595 1068.462402,549.426636 
	C1068.462402,555.913269 1068.462402,561.798157 1068.462402,567.883423 
	C1069.756836,567.883423 1070.832275,567.883423 1072.020874,567.883423 
	C1072.217529,565.630005 1072.396362,563.581665 1072.575195,561.533386 
	C1074.685059,562.682068 1075.676392,564.251160 1076.659912,565.825134 
	C1078.331421,568.499939 1078.329346,568.501221 1081.574341,566.431641 
M934.329102,564.814880 
	C936.739624,566.040222 939.150146,567.265503 942.889404,569.166260 
	C940.404968,562.158997 938.576843,556.710754 936.481079,551.367432 
	C936.115051,550.434204 934.637146,549.421204 933.647461,549.394775 
	C932.674988,549.368774 931.131836,550.335083 930.767944,551.239624 
	C928.587585,556.659607 926.675232,562.187500 924.143616,569.131226 
	C926.721375,567.894348 927.875916,567.318726 929.048828,566.783081 
	C930.523193,566.109558 932.012451,565.468628 934.329102,564.814880 
M879.451782,593.218567 
	C880.774048,593.938232 882.066650,594.721191 883.427490,595.358521 
	C884.625916,595.919861 885.900452,596.318542 888.047974,597.132690 
	C885.755920,590.682068 884.036804,585.480652 881.999390,580.407043 
	C881.575867,579.352295 880.039368,578.287354 878.891724,578.129517 
	C878.020630,578.009644 876.418823,579.114075 876.060242,580.032288 
	C873.977539,585.365845 872.166687,590.805603 870.263916,596.209412 
	C870.588074,596.512024 870.912231,596.814575 871.236389,597.117126 
	C872.415466,596.367798 873.555969,595.546387 874.784546,594.889648 
	C875.990112,594.245178 877.285278,593.768372 879.451782,593.218567 
M836.064758,578.179565 
	C833.697998,584.114136 831.331238,590.048706 828.964417,595.983276 
	C829.285950,596.285828 829.607422,596.588379 829.928955,596.890930 
	C832.548828,595.666443 835.165710,593.489929 837.789429,593.481689 
	C840.482910,593.473206 843.183105,595.583618 847.012085,597.263123 
	C844.604736,590.515137 842.863098,585.143921 840.687317,579.954773 
	C840.261963,578.940247 838.152893,578.631775 836.064758,578.179565 
M1003.655762,549.714233 
	C1000.742554,549.547119 997.829346,549.380005 994.647461,549.197510 
	C994.647461,555.765930 994.647461,561.679993 994.647461,567.586975 
	C1003.935120,569.157898 1008.933838,567.302063 1010.596924,561.696838 
	C1012.119568,556.565369 1009.855530,552.217163 1003.655762,549.714233 
M980.039551,554.858887 
	C980.039551,559.140381 980.039551,563.421875 980.039551,567.904297 
	C983.915466,567.904297 987.343994,567.904297 991.002441,567.904297 
	C990.964661,562.547913 986.052795,566.549255 983.932129,563.179565 
	C984.682617,562.398987 985.615784,561.172485 986.799133,560.276245 
	C987.795471,559.521484 989.082520,559.150635 990.240906,558.609863 
	C988.921814,558.046143 987.613342,557.455444 986.278625,556.931396 
	C985.701294,556.704651 985.069946,556.615662 984.522339,556.478882 
	C983.206055,552.157410 986.033264,552.567749 988.574890,552.365479 
	C989.436279,552.296814 990.229736,551.375122 991.054260,550.843323 
	C990.222839,550.308777 989.422058,549.380981 988.554260,549.313293 
	C985.935608,549.109314 983.291016,549.239685 980.298706,549.239685 
	C980.197510,551.080505 980.118164,552.524597 980.039551,554.858887 
M1015.478760,587.060547 
	C1017.156860,587.762024 1018.993286,588.234131 1020.457825,589.244995 
	C1021.445862,589.927002 1021.909424,591.368958 1022.607605,592.471008 
	C1021.174927,592.611023 1019.684937,593.059204 1018.325317,592.806458 
	C1016.896301,592.540710 1015.592224,591.603699 1013.131714,590.438110 
	C1014.510681,596.052246 1017.644653,597.484741 1020.978149,596.694885 
	C1023.251770,596.156189 1026.145264,593.957703 1026.814087,591.875732 
	C1027.956787,588.318604 1024.725342,586.789246 1021.676880,585.869141 
	C1021.358704,585.773132 1020.943604,585.745789 1020.751099,585.528870 
	C1019.785828,584.441284 1018.879700,583.301086 1017.952820,582.179321 
	C1019.369629,582.131897 1020.807556,581.913208 1022.197388,582.084534 
	C1023.633728,582.261658 1025.023315,582.817688 1026.978760,583.358887 
	C1024.693481,578.174683 1020.739929,576.415161 1016.750244,578.395081 
	C1012.937927,580.286987 1012.550964,583.207581 1015.478760,587.060547 
M867.657837,549.240540 
	C864.884521,549.240540 862.111206,549.240540 859.294922,549.240540 
	C859.294922,555.866455 859.294922,561.901062 859.294922,567.774719 
	C863.057129,567.774719 866.461304,567.774719 869.865479,567.774719 
	C869.972046,567.184204 870.078674,566.593750 870.185242,566.003235 
	C867.958923,565.470459 865.732605,564.937622 863.334839,564.363770 
	C863.334839,563.234497 863.334839,561.881165 863.334839,561.202576 
	C865.618286,560.204468 867.387329,559.431213 869.156433,558.658020 
	C867.277954,557.810913 865.399536,556.963745 863.258301,555.998169 
	C863.258301,555.238647 863.258301,553.996033 863.258301,552.406921 
	C865.153931,552.406921 866.922607,552.791077 868.420959,552.318359 
	C870.771179,551.576965 870.688965,550.282959 867.657837,549.240540 
M853.948303,565.586426 
	C854.498718,564.614197 855.049133,563.641907 855.599548,562.669678 
	C853.519348,562.282043 851.776184,562.567200 850.499146,563.494446 
	C847.715698,565.515198 844.626099,565.695984 843.145996,562.893005 
	C841.988342,560.700623 841.911377,557.042908 842.970520,554.799316 
	C844.320862,551.939026 847.449219,552.057739 850.310852,553.819763 
	C851.717163,554.685730 853.469788,554.989136 856.235657,555.956177 
	C852.163269,548.979736 846.458130,547.438477 841.526306,550.717224 
	C837.218750,553.580994 836.119019,560.101746 839.204163,564.486145 
	C842.235413,568.793945 847.735046,569.404785 853.948303,565.586426 
M1049.285645,584.877808 
	C1051.440063,586.279663 1053.716675,587.531189 1055.698975,589.144653 
	C1056.742676,589.994263 1057.272095,591.476135 1058.033691,592.672485 
	C1056.586548,592.694397 1055.093262,592.949097 1053.705078,592.673828 
	C1052.268677,592.388916 1050.934204,591.589844 1049.555176,591.015686 
	C1049.289673,591.484802 1049.024170,591.953857 1048.758667,592.422913 
	C1049.785156,593.584656 1050.619629,595.046021 1051.875122,595.850403 
	C1055.266602,598.023499 1060.431030,596.840027 1061.996704,593.769043 
	C1063.728149,590.372925 1062.109253,587.714478 1057.159180,585.833496 
	C1056.538452,585.597656 1055.700684,585.558594 1055.329712,585.119141 
	C1054.586182,584.238159 1054.095703,583.143311 1053.500854,582.136780 
	C1054.675781,581.933655 1055.915771,581.394165 1057.010254,581.606323 
	C1058.650513,581.924255 1060.188721,582.769958 1062.682373,583.749512 
	C1061.156494,578.271606 1058.119141,577.473145 1054.573120,577.862915 
	C1050.949707,578.261169 1048.784546,580.182861 1049.285645,584.877808 
M1053.980347,564.199097 
	C1054.074097,565.444214 1054.167847,566.689331 1054.254883,567.845825 
	C1058.070435,567.845825 1061.493530,567.845825 1064.916748,567.845825 
	C1065.071289,567.302795 1065.225830,566.759705 1065.380371,566.216675 
	C1063.066772,565.547668 1060.753174,564.878723 1058.392090,564.195984 
	C1056.540649,558.252075 1062.412598,561.368347 1065.197388,558.301270 
	C1062.591431,557.524231 1060.678833,556.953918 1058.468018,556.294678 
	C1056.843262,552.256775 1059.794922,552.551025 1062.554077,552.367554 
	C1063.429810,552.309326 1064.249390,551.406738 1065.094727,550.890503 
	C1064.285400,550.340210 1063.506348,549.377258 1062.661377,549.315430 
	C1059.899536,549.113403 1057.113647,549.239624 1053.980469,549.239624 
	C1053.980469,554.319641 1053.980469,558.791870 1053.980347,564.199097 
M1019.971497,566.019287 
	C1020.622437,566.716370 1021.231506,567.961731 1021.931702,568.015259 
	C1024.880005,568.240845 1027.855591,568.110596 1031.048096,568.110596 
	C1030.945801,562.505798 1026.082031,566.562012 1023.815430,563.081787 
	C1024.742065,562.277039 1025.859619,561.161377 1027.126099,560.253479 
	C1028.114868,559.544556 1029.288574,559.093628 1030.500122,558.465820 
	C1027.618774,556.864624 1025.852905,555.883301 1024.086914,554.901917 
	C1026.204590,553.703247 1028.322266,552.504578 1030.653320,551.185120 
	C1030.167358,548.783081 1028.576904,548.442139 1019.968811,549.839478 
	C1019.968811,554.868958 1019.968811,559.988403 1019.971497,566.019287 
M921.370422,585.647339 
	C919.966492,584.918945 918.562500,584.190552 917.158569,583.462158 
	C918.493469,582.668762 919.823425,581.866821 921.164917,581.084656 
	C922.176697,580.494812 923.203186,579.930115 924.223083,579.354126 
	C924.026978,578.973511 923.830872,578.592834 923.634827,578.212158 
	C920.191406,578.212158 916.747986,578.212158 913.267700,578.212158 
	C913.267700,584.411743 913.267700,590.361206 913.267700,596.265320 
	C921.026733,597.490417 922.797363,597.131409 923.675842,594.122498 
	C921.539124,592.767578 915.730164,595.630371 917.557861,589.297607 
	C923.040405,588.593567 923.040405,588.593567 921.370422,585.647339 
M828.417969,552.762390 
	C829.733154,552.654785 831.080872,552.687744 832.352905,552.393555 
	C833.317444,552.170349 834.185608,551.530334 835.096680,551.075806 
	C834.160034,550.463745 833.265198,549.419189 832.278564,549.323792 
	C829.700134,549.074219 827.081665,549.239685 824.274536,549.239685 
	C824.274536,555.785278 824.274536,561.715149 824.274536,567.795288 
	C827.866272,567.795288 831.399902,567.795288 834.933533,567.795288 
	C835.072083,567.226807 835.210693,566.658325 835.349304,566.089844 
	C832.975403,565.511658 830.601501,564.933472 827.997986,564.299377 
	C828.065613,563.127686 828.138794,561.859314 828.217407,560.497070 
	C830.353577,560.271179 832.250916,560.070496 834.148315,559.869873 
	C834.283875,559.406799 834.419434,558.943726 834.554993,558.480652 
	C833.445862,557.972290 832.320190,557.006958 831.230896,557.046326 
	C828.592773,557.141663 827.527527,556.218567 828.417969,552.762390 
M971.067627,554.619934 
	C968.552551,558.815063 966.037415,563.010132 963.067139,567.964478 
	C968.725952,567.964478 972.664124,567.964478 976.602234,567.964478 
	C976.858154,567.594482 977.114075,567.224487 977.370056,566.854492 
	C976.411804,566.208740 975.526855,565.226685 974.477722,564.998169 
	C973.005737,564.677551 971.411743,564.917175 969.137451,564.917175 
	C972.388672,559.476929 975.093323,554.951294 978.489197,549.269043 
	C973.250244,549.269043 969.811279,549.180847 966.383728,549.339355 
	C965.650024,549.373291 964.957703,550.301697 964.246277,550.817993 
	C965.035400,551.424011 965.741028,552.252380 966.632141,552.586609 
	C968.169556,553.163391 969.822266,553.432983 971.067627,554.619934 
M953.821411,585.600037 
	C953.821411,589.223511 953.821411,592.846924 953.821411,597.068420 
	C957.866638,596.723206 961.362488,596.424927 964.858276,596.126587 
	C964.788879,595.635315 964.719421,595.144104 964.649963,594.652832 
	C957.616516,592.239014 957.616516,592.239014 958.324158,589.089050 
	C960.089844,588.914734 961.868958,588.739136 963.648071,588.563477 
	C963.813904,588.064270 963.979736,587.565063 964.145569,587.065857 
	C962.935852,586.588562 961.649536,586.242920 960.538452,585.596191 
	C959.466187,584.972046 958.574707,584.037170 957.603821,583.238708 
	C958.646729,582.521362 959.615173,581.636902 960.751953,581.130127 
	C962.085693,580.535522 963.565857,580.269226 964.982483,579.860535 
	C964.840210,579.314026 964.697937,578.767456 964.555725,578.220947 
	C961.125427,578.220947 957.695129,578.220947 953.821777,578.220947 
	C953.821777,580.414795 953.821777,582.536011 953.821411,585.600037 
M1083.421875,585.578430 
	C1083.421875,589.191895 1083.421875,592.805359 1083.421875,596.325867 
	C1092.533447,597.437927 1093.363525,597.246460 1094.022461,594.105164 
	C1091.827515,592.661499 1086.123779,595.859131 1087.539917,589.339111 
	C1088.190674,589.162476 1088.673340,589.069214 1089.128174,588.901184 
	C1090.628174,588.347107 1092.118286,587.765991 1093.612183,587.195251 
	C1092.239258,586.658813 1090.756348,586.297913 1089.529785,585.528198 
	C1088.616089,584.954895 1088.034546,583.852417 1087.305054,582.985596 
	C1088.280029,582.355530 1089.199341,581.603882 1090.244019,581.126038 
	C1091.565796,580.521362 1092.989502,580.139587 1094.369263,579.661682 
	C1094.210449,579.217529 1094.051636,578.773315 1093.892700,578.329102 
	C1090.510010,578.329102 1087.127319,578.329102 1083.422241,578.329102 
	C1083.422241,580.668274 1083.422241,582.646667 1083.421875,585.578430 
M1110.296997,552.095154 
	C1108.877930,551.005127 1107.458740,549.915161 1106.039673,548.825134 
	C1105.694580,549.267456 1105.349487,549.709778 1105.004395,550.152100 
	C1106.457397,552.916748 1108.204712,555.572205 1109.282227,558.476257 
	C1110.394531,561.473633 1110.855347,564.712769 1112.002075,569.529846 
	C1113.405518,567.452820 1114.468628,566.366577 1114.950439,565.065063 
	C1115.961914,562.332947 1116.505127,559.425293 1117.548340,556.707825 
	C1118.453979,554.348938 1119.783691,552.152771 1121.082153,549.574463 
	C1114.544434,548.265625 1116.044067,554.820679 1112.529541,556.535156 
	C1111.894287,555.280090 1111.260132,554.027405 1110.296997,552.095154 
M1034.814697,579.566467 
	C1033.420044,578.931519 1032.025513,578.296631 1030.851196,577.761963 
	C1032.737671,583.887268 1034.410278,589.484619 1036.233887,595.032410 
	C1036.465332,595.736450 1037.417114,596.439270 1038.170776,596.644470 
	C1038.596924,596.760498 1039.643311,595.970398 1039.824341,595.401917 
	C1041.636353,589.709717 1043.326416,583.978760 1045.087769,578.136719 
	C1039.909668,576.491577 1041.231445,583.305603 1037.707275,584.831726 
	C1036.851685,583.322876 1035.990601,581.804260 1034.814697,579.566467 
M900.980713,564.947876 
	C900.980713,560.881714 900.980713,556.815552 900.980713,553.666626 
	C903.213867,552.370117 904.581482,551.576050 905.949158,550.781921 
	C904.427185,550.273865 902.933655,549.477844 901.376648,549.323730 
	C898.917725,549.080322 896.399231,549.106628 893.942261,549.364807 
	C893.145447,549.448486 892.462585,550.616394 891.297729,551.681519 
	C893.843628,552.358337 895.362976,552.762268 897.084351,553.219910 
	C897.084351,558.253052 897.084351,563.018127 897.084351,567.783142 
	C897.479919,568.074524 897.875549,568.365906 898.271118,568.657349 
	C899.174072,567.703430 900.077087,566.749512 900.980713,564.947876 
M993.859985,592.094360 
	C994.529114,593.648193 995.198242,595.202026 995.867493,596.755859 
	C996.527710,595.186951 997.620483,593.654968 997.758423,592.041321 
	C998.051575,588.613037 997.848083,585.142273 997.848083,582.150635 
	C999.956604,581.134705 1001.529175,580.377075 1003.101746,579.619446 
	C1002.931213,579.181091 1002.760742,578.742798 1002.590271,578.304443 
	C998.080994,578.304443 993.571655,578.304443 989.062378,578.304443 
	C988.894104,578.733765 988.725891,579.163147 988.557617,579.592468 
	C990.132080,580.391541 991.706482,581.190613 993.860535,582.283875 
	C993.860535,584.935730 993.860535,588.062744 993.859985,592.094360 
M1071.225708,596.210693 
	C1073.797729,597.509949 1074.915283,596.672485 1074.875610,593.842834 
	C1074.817993,589.742432 1074.860840,585.640625 1074.860840,582.146484 
	C1077.085205,581.040405 1078.597412,580.288391 1080.109741,579.536438 
	C1079.916626,579.165283 1079.723633,578.794128 1079.530640,578.422974 
	C1075.028198,578.422974 1070.525757,578.422974 1066.023315,578.422974 
	C1065.893311,578.838745 1065.763184,579.254456 1065.633057,579.670227 
	C1067.254028,580.464417 1068.875000,581.258667 1070.925537,582.263367 
	C1070.925537,586.518494 1070.925537,590.988647 1071.225708,596.210693 
z"/>
<path fill="#077CC2" opacity="1.000000" stroke="none" 
	d="
M1042.257324,497.719849 
	C1042.471558,497.466187 1042.821045,497.240631 1042.880371,496.954803 
	C1045.430054,484.682678 1054.427002,480.847137 1065.389771,480.615784 
	C1083.369995,480.236359 1101.363159,480.469208 1119.350952,480.467377 
	C1119.612061,480.467346 1119.873291,480.771820 1120.667480,481.265533 
	C1117.111328,485.868042 1113.734863,490.541168 1109.968506,494.875549 
	C1109.141113,495.827637 1106.929321,495.827972 1105.352417,495.837677 
	C1093.359375,495.911407 1081.365601,495.873993 1069.372070,495.884705 
	C1067.874390,495.886047 1066.120239,495.492340 1064.943115,496.128906 
	C1063.437378,496.943298 1061.710083,498.476929 1061.403564,499.972198 
	C1061.208130,500.926239 1063.213867,502.749969 1064.602539,503.483124 
	C1065.805542,504.118256 1067.529297,503.836548 1069.023071,503.840088 
	C1078.851074,503.863525 1088.679443,503.806946 1098.506836,503.885956 
	C1101.325928,503.908630 1104.191895,504.032013 1106.950684,504.558044 
	C1116.417847,506.363312 1120.828613,511.075867 1121.069336,519.294189 
	C1121.362671,529.316345 1117.127808,535.431824 1107.831299,537.750366 
	C1104.312988,538.627869 1100.602051,539.100464 1096.975830,539.117920 
	C1072.322998,539.236328 1047.669434,539.184631 1023.016052,539.182556 
	C1022.392700,539.182495 1021.769287,539.122253 1020.433533,539.053345 
	C1024.172119,534.249573 1027.325073,529.804016 1030.949707,525.783630 
	C1032.024048,524.591980 1034.423584,524.136169 1036.220459,524.125488 
	C1055.542725,524.011475 1074.865845,524.055359 1094.188721,524.051941 
	C1095.687622,524.051697 1097.416504,524.490845 1098.631836,523.895508 
	C1100.477661,522.991150 1103.069824,521.571411 1103.374146,519.991211 
	C1103.973389,516.877747 1101.219482,515.896912 1098.463379,515.882446 
	C1088.302856,515.829041 1078.140747,515.726501 1067.981567,515.845093 
	C1060.123413,515.936829 1052.779175,514.563599 1046.052979,509.662292 
	C1044.533447,505.730225 1043.395386,501.725037 1042.257324,497.719849 
z"/>
<path fill="#06266C" opacity="1.000000" stroke="none" 
	d="
M1042.142944,497.169159 
	C1043.395386,501.725037 1044.533447,505.730225 1045.779785,509.973877 
	C1046.767578,513.371887 1047.646973,516.531433 1048.615112,520.010315 
	C1042.583496,520.010315 1037.127075,520.010315 1031.011108,520.010315 
	C1029.676758,515.283813 1028.258545,510.260651 1026.473999,503.939758 
	C1025.140015,506.181458 1024.319458,507.431549 1023.624939,508.748077 
	C1019.281494,516.981201 1014.934570,525.212830 1010.654053,533.478699 
	C1008.297546,538.029236 1004.912964,540.448425 999.522888,540.290771 
	C994.240417,540.136292 991.423523,537.168762 989.208313,532.945618 
	C984.230225,523.455322 979.179260,514.003296 973.602722,503.488800 
	C970.574524,514.847900 967.736450,524.997803 965.225464,535.227966 
	C964.512451,538.133118 963.554871,539.461853 960.327698,539.235596 
	C955.873047,538.923279 951.380066,539.157349 946.300354,539.157349 
	C948.352844,531.934570 950.245056,525.126160 952.225159,518.343445 
	C955.158997,508.293671 958.153687,498.261688 961.125610,488.223053 
	C962.515015,483.529907 965.294006,480.282410 970.391785,479.644623 
	C975.477478,479.008362 979.040222,481.354523 981.468506,485.657623 
	C987.188477,495.793701 992.883789,505.943665 998.593506,516.085510 
	C999.065063,516.923096 999.570801,517.741455 1000.426147,519.186035 
	C1004.997375,511.072418 1009.284668,503.476044 1013.557983,495.871857 
	C1015.431458,492.538025 1017.214539,489.151855 1019.150024,485.854828 
	C1021.600586,481.680298 1025.053345,479.072479 1030.167114,479.595490 
	C1035.291382,480.119568 1038.146362,483.221832 1039.466187,488.026062 
	C1040.257690,490.907410 1041.170288,493.755463 1042.142944,497.169159 
z"/>
<path fill="#06266C" opacity="1.000000" stroke="none" 
	d="
M846.101135,519.152710 
	C850.447144,515.377197 854.523132,511.830414 858.599121,508.283600 
	C858.445312,507.932373 858.291504,507.581146 858.137695,507.229919 
	C855.087524,507.229919 852.037292,507.229919 848.036987,507.229919 
	C852.441467,498.869873 856.418640,491.320740 860.358643,483.842346 
	C879.603333,489.126556 885.886536,513.652344 872.081604,528.276794 
	C866.088989,534.625061 858.542969,538.420410 850.028564,538.742493 
	C835.130493,539.306152 820.195801,538.899658 805.128784,538.899658 
	C805.128784,519.536682 805.128784,500.252411 805.128784,480.700745 
	C817.069031,480.700745 828.837830,480.700745 841.381470,480.700745 
	C835.867920,491.183075 830.514709,501.360596 824.734497,512.349915 
	C828.709778,512.526245 831.895630,512.667603 835.777100,512.839722 
	C831.769592,520.846924 827.988403,528.401917 824.207275,535.956909 
	C824.614075,536.300903 825.020935,536.644958 825.427795,536.988953 
	C832.228882,531.119751 839.029968,525.250549 846.101135,519.152710 
z"/>
<path fill="#077CC2" opacity="1.000000" stroke="none" 
	d="
M942.857788,481.034912 
	C943.092224,486.029144 943.092224,490.669891 943.092224,495.592010 
	C922.965576,495.592010 903.066101,495.592010 882.769043,495.592010 
	C882.769043,490.753632 882.769043,485.880341 882.769043,480.681396 
	C902.804688,480.681396 922.714050,480.681396 942.857788,481.034912 
z"/>
<path fill="#077CC2" opacity="1.000000" stroke="none" 
	d="
M882.544067,538.151489 
	C882.425476,533.428284 882.425476,529.121277 882.425476,524.435913 
	C902.748413,524.435913 922.774475,524.435913 943.010132,524.435913 
	C943.010132,529.202148 943.010132,533.966370 943.010132,539.188721 
	C927.206726,539.188721 911.600586,539.233643 895.994934,539.160278 
	C891.550049,539.139343 887.106689,538.774719 882.544067,538.151489 
z"/>
<path fill="#077CC2" opacity="1.000000" stroke="none" 
	d="
M904.000000,516.238037 
	C896.700928,516.237854 889.901733,516.237854 882.737305,516.237854 
	C882.737305,511.709473 882.737305,507.519165 882.737305,503.070435 
	C902.807739,503.070435 922.706116,503.070435 942.911499,503.070435 
	C942.911499,507.338409 942.911499,511.556183 942.911499,516.238220 
	C930.031738,516.238220 917.265808,516.238220 904.000000,516.238037 
z"/>
<path fill="#077CC2" opacity="1.000000" stroke="none" 
	d="
M1119.343994,593.418213 
	C1118.576416,594.809692 1117.809570,595.772217 1117.042725,596.734619 
	C1116.498779,595.874939 1115.624023,595.065857 1115.483154,594.144531 
	C1115.228149,592.476807 1115.411011,590.742126 1115.411011,589.035400 
	C1114.971436,588.940979 1114.531860,588.846558 1114.092163,588.752136 
	C1113.155884,590.775024 1112.305420,592.844604 1111.241089,594.797729 
	C1110.816528,595.576721 1109.802002,596.705627 1109.264038,596.601379 
	C1108.349487,596.424194 1107.307861,595.556091 1106.838013,594.695374 
	C1105.678101,592.570190 1104.812256,590.284607 1103.786499,587.969299 
	C1100.917358,590.420227 1105.492798,595.951111 1099.226807,596.968506 
	C1099.226807,590.605530 1099.226807,584.690125 1099.226807,578.047913 
	C1107.303467,577.880615 1104.433350,587.098328 1108.979736,589.640198 
	C1113.763916,587.315308 1110.897095,577.866028 1119.344604,578.045166 
	C1119.344604,583.348389 1119.344604,588.168823 1119.343994,593.418213 
z"/>
<path fill="#077CC2" opacity="1.000000" stroke="none" 
	d="
M808.620483,595.368103 
	C806.806152,597.091248 805.083984,597.809082 805.001831,594.627136 
	C804.861145,589.179199 804.962891,583.724976 804.962891,577.896301 
	C813.277710,578.128723 810.495544,586.963684 814.968567,589.700562 
	C819.675354,587.157898 817.025940,577.942078 825.450806,577.995300 
	C825.450806,583.621887 825.545776,588.758545 825.367249,593.885742 
	C825.333313,594.859924 824.216492,595.796448 823.599365,596.750305 
	C822.884705,595.729065 821.848206,594.796753 821.535522,593.664551 
	C821.129211,592.193298 821.298279,590.562988 820.125610,588.701904 
	C819.270569,590.558472 818.553406,592.497925 817.507202,594.239685 
	C816.907410,595.238220 815.879395,596.235840 814.828735,596.584595 
	C814.392090,596.729370 813.171448,595.295715 812.695862,594.378479 
	C811.648193,592.357666 810.847595,590.208923 808.694946,588.156006 
	C808.694946,590.422058 808.694946,592.688171 808.620483,595.368103 
z"/>
<path fill="#077CC2" opacity="1.000000" stroke="none" 
	d="
M934.960083,582.796021 
	C936.154907,585.577148 937.220215,587.999329 938.296143,590.445801 
	C943.158325,587.469910 940.673279,578.438538 948.824768,577.879639 
	C948.824768,584.381958 948.824768,590.321228 948.824768,596.255798 
	C945.690857,596.301025 945.690857,596.301025 944.697266,586.564880 
	C943.181030,589.977295 942.360901,592.193542 941.221252,594.230957 
	C940.657715,595.238159 939.612854,596.264099 938.570923,596.585815 
	C938.098022,596.731873 936.896606,595.301331 936.388367,594.384827 
	C935.386353,592.577759 934.637329,590.630493 932.647400,588.910889 
	C932.453491,591.395569 932.259583,593.880310 932.065735,596.364990 
	C931.650757,596.642456 931.235840,596.919922 930.820923,597.197449 
	C930.011414,596.165161 928.553467,595.163879 928.502441,594.095459 
	C928.257263,588.963623 928.392334,583.813538 928.392334,578.699646 
	C932.869995,576.427307 933.573059,579.885498 934.960083,582.796021 
z"/>
<path fill="#1D3A79" opacity="1.000000" stroke="none" 
	d="
M883.262390,558.443665 
	C884.149963,557.855774 884.987549,556.980835 885.376587,555.938477 
	C886.190369,553.758057 886.767578,551.489319 887.442017,549.256897 
	C888.075317,551.505615 889.075134,553.724915 889.259033,556.009766 
	C889.563293,559.790771 889.341797,563.614075 889.341797,567.927246 
	C882.298462,568.961060 883.066162,560.633484 877.697510,558.943115 
	C877.431152,561.876953 877.178772,564.655823 876.894958,567.782043 
	C875.810181,567.782043 874.624084,567.782043 873.209106,567.782043 
	C873.209106,562.424683 873.140381,557.291260 873.270264,552.162903 
	C873.294617,551.199646 874.075806,549.483459 874.571106,549.460022 
	C875.709717,549.406372 877.293030,549.850830 877.971436,550.683350 
	C879.849060,552.987610 881.355896,555.593872 883.262390,558.443665 
z"/>
<path fill="#1D3A79" opacity="1.000000" stroke="none" 
	d="
M1044.736328,565.332520 
	C1042.889160,562.611755 1041.244385,560.187073 1039.599609,557.762329 
	C1039.256714,557.809265 1038.913818,557.856201 1038.570923,557.903137 
	C1038.422363,561.031494 1038.273682,564.159790 1038.104858,567.715088 
	C1037.020142,567.815796 1035.834106,567.925903 1034.204590,568.077209 
	C1034.204590,562.591919 1034.116333,557.488159 1034.277466,552.392273 
	C1034.310547,551.343323 1035.147217,549.585083 1035.839844,549.465637 
	C1036.852539,549.290955 1038.451904,550.001038 1039.129395,550.862427 
	C1041.334106,553.665527 1043.233765,556.708618 1046.355347,559.470886 
	C1046.563477,556.188538 1046.771729,552.906250 1046.979858,549.623901 
	C1047.443359,549.374268 1047.906860,549.124695 1048.370361,548.875061 
	C1049.132568,550.070129 1050.489746,551.234924 1050.552246,552.465576 
	C1050.804443,557.423340 1050.656860,562.401428 1050.656860,569.012573 
	C1048.223755,567.572693 1046.581299,566.600647 1044.736328,565.332520 
z"/>
<path fill="#1D3A79" opacity="1.000000" stroke="none" 
	d="
M1100.810547,555.158997 
	C1099.323730,554.594299 1098.199951,553.985535 1097.033813,553.473511 
	C1093.868042,552.083496 1091.004761,552.433472 1089.498169,555.786499 
	C1088.091675,558.916931 1088.412598,562.040466 1091.630493,564.099670 
	C1094.516113,565.946350 1096.980347,564.949524 1098.778564,561.678650 
	C1096.953491,560.781677 1095.108032,559.874573 1093.262451,558.967407 
	C1095.347046,558.517578 1097.418945,557.989014 1099.521362,557.649780 
	C1100.638062,557.469604 1101.807739,557.617920 1103.165039,557.617920 
	C1104.390015,562.022766 1102.493896,564.871460 1099.268921,566.978149 
	C1095.761230,569.269592 1090.132324,568.564453 1087.310547,565.525696 
	C1084.106689,562.075500 1083.901978,557.942139 1085.880859,553.966431 
	C1087.875000,549.959961 1091.733887,548.349548 1095.928467,549.328796 
	C1098.261108,549.873352 1100.218872,552.023193 1102.345581,553.449585 
	C1101.948608,554.019409 1101.551514,554.589233 1100.810547,555.158997 
z"/>
<path fill="#077CC2" opacity="1.000000" stroke="none" 
	d="
M850.247192,591.715088 
	C850.247192,586.961182 850.247192,582.667847 850.247192,578.048035 
	C857.762207,577.760986 857.115112,586.027039 862.147156,588.321411 
	C862.660645,584.828796 863.136841,581.445618 863.752502,578.088013 
	C863.771301,577.985779 865.243286,578.150024 866.189575,578.197693 
	C866.189575,584.353394 866.189575,590.285156 866.189575,596.717957 
	C859.196838,596.864746 859.754211,588.894409 854.512512,586.610779 
	C854.412537,588.714294 854.534241,590.614319 854.171082,592.416626 
	C853.867493,593.923645 852.996765,595.316406 852.377197,596.759766 
	C851.667175,595.231750 850.957153,593.703735 850.247192,591.715088 
z"/>
<path fill="#077CC2" opacity="1.000000" stroke="none" 
	d="
M901.506104,586.191833 
	C904.077454,586.185669 906.232788,586.185669 908.352600,586.185669 
	C909.806519,591.407959 907.894531,594.966492 902.930725,596.468201 
	C897.980713,597.965820 892.839539,595.491455 891.149719,590.798218 
	C889.399597,585.937317 891.520081,580.652771 896.027039,578.643616 
	C901.092285,576.385437 905.879639,578.131653 908.997253,584.598572 
	C906.159546,583.393860 904.419250,582.706238 902.722717,581.923828 
	C899.404053,580.393433 896.861938,581.374023 895.167358,584.420410 
	C893.462341,587.485535 894.784058,591.791260 897.843933,592.906738 
	C900.867432,594.008850 903.589722,593.703674 904.925476,590.154053 
	C902.821228,589.326904 901.009094,588.614563 899.196960,587.902161 
	C899.828064,587.334106 900.459167,586.766052 901.506104,586.191833 
z"/>
<path fill="#077CC2" opacity="1.000000" stroke="none" 
	d="
M985.197388,585.141174 
	C985.197144,589.091492 985.197144,592.572693 985.197144,596.642822 
	C977.653809,596.739807 978.140991,588.603577 972.948120,585.752625 
	C972.948120,588.815674 973.079651,591.546936 972.871765,594.252136 
	C972.805237,595.117432 971.839905,595.913696 971.285828,596.741577 
	C970.557434,595.899414 969.230530,595.079468 969.198364,594.211609 
	C969.002319,588.918091 969.100525,583.613586 969.100525,578.000061 
	C976.507996,577.822205 975.812622,585.821594 980.335022,588.058105 
	C983.529785,585.628784 977.962036,579.215637 985.197693,577.532104 
	C985.197693,580.453857 985.197693,582.562927 985.197388,585.141174 
z"/>
<path fill="#1D3A79" opacity="1.000000" stroke="none" 
	d="
M957.094360,555.192017 
	C957.687134,552.629822 955.349854,548.375549 960.927368,549.680603 
	C960.927368,555.717651 960.927368,561.642700 960.927368,567.560669 
	C955.678955,567.560669 950.529724,567.560669 944.935181,567.560669 
	C944.935181,562.485901 944.840271,557.210449 945.026001,551.944824 
	C945.057922,551.039978 946.283997,550.177185 946.958435,549.294983 
	C947.607300,550.210205 948.769348,551.099854 948.816467,552.044983 
	C949.022461,556.178894 948.905090,560.328918 948.905090,564.551941 
	C951.536316,564.981689 953.916077,565.370361 957.094360,565.889465 
	C957.094360,562.429688 957.094360,559.042419 957.094360,555.192017 
z"/>
<path fill="#1D3A79" opacity="1.000000" stroke="none" 
	d="
M809.845459,568.118530 
	C808.112671,568.118896 806.784912,568.118896 805.177185,568.118896 
	C805.177185,561.917847 805.177185,555.841858 805.177185,549.776306 
	C814.980347,548.188721 820.565674,550.865295 821.298645,557.447510 
	C822.050659,564.200012 818.312073,567.810852 809.845459,568.118530 
M814.696289,553.365906 
	C812.857117,553.139282 811.017944,552.912659 808.777588,552.636597 
	C808.777588,556.261658 808.760437,559.197876 808.788940,562.133667 
	C808.796631,562.926697 808.942505,563.718384 809.155579,565.766846 
	C811.866516,564.552124 815.400452,564.033508 815.924866,562.491394 
	C816.774414,559.993530 815.648315,556.823792 814.696289,553.365906 
z"/>
<path fill="#1D3A79" opacity="1.000000" stroke="none" 
	d="
M916.854004,565.937866 
	C915.770325,564.164978 914.849976,562.718628 913.929565,561.272339 
	C913.568970,561.362793 913.208374,561.453308 912.847717,561.543762 
	C912.607727,563.532715 912.367737,565.521606 911.947388,569.005615 
	C910.398621,567.696472 908.556030,566.882996 908.509888,565.977783 
	C908.234497,560.577209 908.373657,555.155579 908.373657,549.389343 
	C913.455139,549.533508 918.773254,547.595154 921.463013,552.525452 
	C922.586609,554.584839 920.810120,558.226501 920.352173,561.148682 
	C919.810974,561.143494 919.269714,561.138245 918.728516,561.133057 
	C919.869507,563.256042 921.010498,565.379089 922.151489,567.502136 
	C921.928101,567.848572 921.704712,568.194946 921.481323,568.541382 
	C919.993347,567.782410 918.505371,567.023438 916.854004,565.937866 
M916.854370,552.922363 
	C912.084717,551.514771 911.830444,553.960022 912.779297,557.726868 
	C916.149963,557.971130 919.301758,558.302917 916.854370,552.922363 
z"/>
<path fill="#1D3A79" opacity="1.000000" stroke="none" 
	d="
M1081.726318,566.758545 
	C1078.329346,568.501221 1078.331421,568.499939 1076.659912,565.825134 
	C1075.676392,564.251160 1074.685059,562.682068 1072.575195,561.533386 
	C1072.396362,563.581665 1072.217529,565.630005 1072.020874,567.883423 
	C1070.832275,567.883423 1069.756836,567.883423 1068.462402,567.883423 
	C1068.462402,561.798157 1068.462402,555.913269 1068.462402,549.426636 
	C1073.060303,549.459595 1078.271118,547.625732 1081.118774,552.218323 
	C1082.398804,554.282593 1080.691895,558.199158 1080.340210,561.275269 
	C1079.799316,561.282593 1079.258423,561.289856 1078.717529,561.297180 
	C1079.669800,563.008667 1080.622070,564.720154 1081.726318,566.758545 
M1077.888184,553.971558 
	C1076.249146,553.383667 1074.610107,552.795776 1072.547852,552.056152 
	C1072.547852,554.606506 1072.547852,556.118286 1072.547852,557.717102 
	C1075.251709,557.845764 1078.002686,558.715332 1077.888184,553.971558 
z"/>
<path fill="#1D3A79" opacity="1.000000" stroke="none" 
	d="
M933.912231,564.814270 
	C932.012451,565.468628 930.523193,566.109558 929.048828,566.783081 
	C927.875916,567.318726 926.721375,567.894348 924.143616,569.131226 
	C926.675232,562.187500 928.587585,556.659607 930.767944,551.239624 
	C931.131836,550.335083 932.674988,549.368774 933.647461,549.394775 
	C934.637146,549.421204 936.115051,550.434204 936.481079,551.367432 
	C938.576843,556.710754 940.404968,562.158997 942.889404,569.166260 
	C939.150146,567.265503 936.739624,566.040222 933.912231,564.814270 
z"/>
<path fill="#077CC2" opacity="1.000000" stroke="none" 
	d="
M878.996460,593.218262 
	C877.285278,593.768372 875.990112,594.245178 874.784546,594.889648 
	C873.555969,595.546387 872.415466,596.367798 871.236389,597.117126 
	C870.912231,596.814575 870.588074,596.512024 870.263916,596.209412 
	C872.166687,590.805603 873.977539,585.365845 876.060242,580.032288 
	C876.418823,579.114075 878.020630,578.009644 878.891724,578.129517 
	C880.039368,578.287354 881.575867,579.352295 881.999390,580.407043 
	C884.036804,585.480652 885.755920,590.682068 888.047974,597.132690 
	C885.900452,596.318542 884.625916,595.919861 883.427490,595.358521 
	C882.066650,594.721191 880.774048,593.938232 878.996460,593.218262 
z"/>
<path fill="#077CC2" opacity="1.000000" stroke="none" 
	d="
M836.442566,578.088623 
	C838.152893,578.631775 840.261963,578.940247 840.687317,579.954773 
	C842.863098,585.143921 844.604736,590.515137 847.012085,597.263123 
	C843.183105,595.583618 840.482910,593.473206 837.789429,593.481689 
	C835.165710,593.489929 832.548828,595.666443 829.928955,596.890930 
	C829.607422,596.588379 829.285950,596.285828 828.964417,595.983276 
	C831.331238,590.048706 833.697998,584.114136 836.442566,578.088623 
z"/>
<path fill="#1D3A79" opacity="1.000000" stroke="none" 
	d="
M1004.051392,549.799805 
	C1009.855530,552.217163 1012.119568,556.565369 1010.596924,561.696838 
	C1008.933838,567.302063 1003.935120,569.157898 994.647461,567.586975 
	C994.647461,561.679993 994.647461,555.765930 994.647461,549.197510 
	C997.829346,549.380005 1000.742554,549.547119 1004.051392,549.799805 
M1000.456421,552.669922 
	C999.773132,553.385620 998.551636,554.064697 998.500000,554.823303 
	C998.280151,558.054382 998.406494,561.309021 998.406494,564.626953 
	C1002.809998,565.334167 1006.049988,564.488037 1006.855408,560.226196 
	C1007.637268,556.088318 1005.988098,553.124390 1000.456421,552.669922 
z"/>
<path fill="#1D3A79" opacity="1.000000" stroke="none" 
	d="
M980.039185,554.413757 
	C980.118164,552.524597 980.197510,551.080505 980.298706,549.239685 
	C983.291016,549.239685 985.935608,549.109314 988.554260,549.313293 
	C989.422058,549.380981 990.222839,550.308777 991.054260,550.843323 
	C990.229736,551.375122 989.436279,552.296814 988.574890,552.365479 
	C986.033264,552.567749 983.206055,552.157410 984.522339,556.478882 
	C985.069946,556.615662 985.701294,556.704651 986.278625,556.931396 
	C987.613342,557.455444 988.921814,558.046143 990.240906,558.609863 
	C989.082520,559.150635 987.795471,559.521484 986.799133,560.276245 
	C985.615784,561.172485 984.682617,562.398987 983.932129,563.179565 
	C986.052795,566.549255 990.964661,562.547913 991.002441,567.904297 
	C987.343994,567.904297 983.915466,567.904297 980.039551,567.904297 
	C980.039551,563.421875 980.039551,559.140381 980.039185,554.413757 
z"/>
<path fill="#077CC2" opacity="1.000000" stroke="none" 
	d="
M1015.180054,586.841309 
	C1012.550964,583.207581 1012.937927,580.286987 1016.750244,578.395081 
	C1020.739929,576.415161 1024.693481,578.174683 1026.978760,583.358887 
	C1025.023315,582.817688 1023.633728,582.261658 1022.197388,582.084534 
	C1020.807556,581.913208 1019.369629,582.131897 1017.952820,582.179321 
	C1018.879700,583.301086 1019.785828,584.441284 1020.751099,585.528870 
	C1020.943604,585.745789 1021.358704,585.773132 1021.676880,585.869141 
	C1024.725342,586.789246 1027.956787,588.318604 1026.814087,591.875732 
	C1026.145264,593.957703 1023.251770,596.156189 1020.978149,596.694885 
	C1017.644653,597.484741 1014.510681,596.052246 1013.131714,590.438110 
	C1015.592224,591.603699 1016.896301,592.540710 1018.325317,592.806458 
	C1019.684937,593.059204 1021.174927,592.611023 1022.607605,592.471008 
	C1021.909424,591.368958 1021.445862,589.927002 1020.457825,589.244995 
	C1018.993286,588.234131 1017.156860,587.762024 1015.180054,586.841309 
z"/>
<path fill="#1D3A79" opacity="1.000000" stroke="none" 
	d="
M868.035339,549.250244 
	C870.688965,550.282959 870.771179,551.576965 868.420959,552.318359 
	C866.922607,552.791077 865.153931,552.406921 863.258301,552.406921 
	C863.258301,553.996033 863.258301,555.238647 863.258301,555.998169 
	C865.399536,556.963745 867.277954,557.810913 869.156433,558.658020 
	C867.387329,559.431213 865.618286,560.204468 863.334839,561.202576 
	C863.334839,561.881165 863.334839,563.234497 863.334839,564.363770 
	C865.732605,564.937622 867.958923,565.470459 870.185242,566.003235 
	C870.078674,566.593750 869.972046,567.184204 869.865479,567.774719 
	C866.461304,567.774719 863.057129,567.774719 859.294922,567.774719 
	C859.294922,561.901062 859.294922,555.866455 859.294922,549.240540 
	C862.111206,549.240540 864.884521,549.240540 868.035339,549.250244 
z"/>
<path fill="#1D3A79" opacity="1.000000" stroke="none" 
	d="
M853.692261,565.826660 
	C847.735046,569.404785 842.235413,568.793945 839.204163,564.486145 
	C836.119019,560.101746 837.218750,553.580994 841.526306,550.717224 
	C846.458130,547.438477 852.163269,548.979736 856.235657,555.956177 
	C853.469788,554.989136 851.717163,554.685730 850.310852,553.819763 
	C847.449219,552.057739 844.320862,551.939026 842.970520,554.799316 
	C841.911377,557.042908 841.988342,560.700623 843.145996,562.893005 
	C844.626099,565.695984 847.715698,565.515198 850.499146,563.494446 
	C851.776184,562.567200 853.519348,562.282043 855.599548,562.669678 
	C855.049133,563.641907 854.498718,564.614197 853.692261,565.826660 
z"/>
<path fill="#077CC2" opacity="1.000000" stroke="none" 
	d="
M1049.187744,584.507568 
	C1048.784546,580.182861 1050.949707,578.261169 1054.573120,577.862915 
	C1058.119141,577.473145 1061.156494,578.271606 1062.682373,583.749512 
	C1060.188721,582.769958 1058.650513,581.924255 1057.010254,581.606323 
	C1055.915771,581.394165 1054.675781,581.933655 1053.500854,582.136780 
	C1054.095703,583.143311 1054.586182,584.238159 1055.329712,585.119141 
	C1055.700684,585.558594 1056.538452,585.597656 1057.159180,585.833496 
	C1062.109253,587.714478 1063.728149,590.372925 1061.996704,593.769043 
	C1060.431030,596.840027 1055.266602,598.023499 1051.875122,595.850403 
	C1050.619629,595.046021 1049.785156,593.584656 1048.758667,592.422913 
	C1049.024170,591.953857 1049.289673,591.484802 1049.555176,591.015686 
	C1050.934204,591.589844 1052.268677,592.388916 1053.705078,592.673828 
	C1055.093262,592.949097 1056.586548,592.694397 1058.033691,592.672485 
	C1057.272095,591.476135 1056.742676,589.994263 1055.698975,589.144653 
	C1053.716675,587.531189 1051.440063,586.279663 1049.187744,584.507568 
z"/>
<path fill="#1D3A79" opacity="1.000000" stroke="none" 
	d="
M1053.980469,563.731628 
	C1053.980469,558.791870 1053.980469,554.319641 1053.980469,549.239624 
	C1057.113647,549.239624 1059.899536,549.113403 1062.661377,549.315430 
	C1063.506348,549.377258 1064.285400,550.340210 1065.094727,550.890503 
	C1064.249390,551.406738 1063.429810,552.309326 1062.554077,552.367554 
	C1059.794922,552.551025 1056.843262,552.256775 1058.468018,556.294678 
	C1060.678833,556.953918 1062.591431,557.524231 1065.197388,558.301270 
	C1062.412598,561.368347 1056.540649,558.252075 1058.392090,564.195984 
	C1060.753174,564.878723 1063.066772,565.547668 1065.380371,566.216675 
	C1065.225830,566.759705 1065.071289,567.302795 1064.916748,567.845825 
	C1061.493530,567.845825 1058.070435,567.845825 1054.254883,567.845825 
	C1054.167847,566.689331 1054.074097,565.444214 1053.980469,563.731628 
z"/>
<path fill="#1D3A79" opacity="1.000000" stroke="none" 
	d="
M1019.970154,565.563599 
	C1019.968811,559.988403 1019.968811,554.868958 1019.968811,549.839478 
	C1028.576904,548.442139 1030.167358,548.783081 1030.653320,551.185120 
	C1028.322266,552.504578 1026.204590,553.703247 1024.086914,554.901917 
	C1025.852905,555.883301 1027.618774,556.864624 1030.500122,558.465820 
	C1029.288574,559.093628 1028.114868,559.544556 1027.126099,560.253479 
	C1025.859619,561.161377 1024.742065,562.277039 1023.815430,563.081787 
	C1026.082031,566.562012 1030.945801,562.505798 1031.048096,568.110596 
	C1027.855591,568.110596 1024.880005,568.240845 1021.931702,568.015259 
	C1021.231506,567.961731 1020.622437,566.716370 1019.970154,565.563599 
z"/>
<path fill="#077CC2" opacity="1.000000" stroke="none" 
	d="
M921.764771,585.666748 
	C923.040405,588.593567 923.040405,588.593567 917.557861,589.297607 
	C915.730164,595.630371 921.539124,592.767578 923.675842,594.122498 
	C922.797363,597.131409 921.026733,597.490417 913.267700,596.265320 
	C913.267700,590.361206 913.267700,584.411743 913.267700,578.212158 
	C916.747986,578.212158 920.191406,578.212158 923.634827,578.212158 
	C923.830872,578.592834 924.026978,578.973511 924.223083,579.354126 
	C923.203186,579.930115 922.176697,580.494812 921.164917,581.084656 
	C919.823425,581.866821 918.493469,582.668762 917.158569,583.462158 
	C918.562500,584.190552 919.966492,584.918945 921.764771,585.666748 
z"/>
<path fill="#1D3A79" opacity="1.000000" stroke="none" 
	d="
M828.222290,553.183960 
	C827.527527,556.218567 828.592773,557.141663 831.230896,557.046326 
	C832.320190,557.006958 833.445862,557.972290 834.554993,558.480652 
	C834.419434,558.943726 834.283875,559.406799 834.148315,559.869873 
	C832.250916,560.070496 830.353577,560.271179 828.217407,560.497070 
	C828.138794,561.859314 828.065613,563.127686 827.997986,564.299377 
	C830.601501,564.933472 832.975403,565.511658 835.349304,566.089844 
	C835.210693,566.658325 835.072083,567.226807 834.933533,567.795288 
	C831.399902,567.795288 827.866272,567.795288 824.274536,567.795288 
	C824.274536,561.715149 824.274536,555.785278 824.274536,549.239685 
	C827.081665,549.239685 829.700134,549.074219 832.278564,549.323792 
	C833.265198,549.419189 834.160034,550.463745 835.096680,551.075806 
	C834.185608,551.530334 833.317444,552.170349 832.352905,552.393555 
	C831.080872,552.687744 829.733154,552.654785 828.222290,553.183960 
z"/>
<path fill="#1D3A79" opacity="1.000000" stroke="none" 
	d="
M971.247070,554.225708 
	C969.822266,553.432983 968.169556,553.163391 966.632141,552.586609 
	C965.741028,552.252380 965.035400,551.424011 964.246277,550.817993 
	C964.957703,550.301697 965.650024,549.373291 966.383728,549.339355 
	C969.811279,549.180847 973.250244,549.269043 978.489197,549.269043 
	C975.093323,554.951294 972.388672,559.476929 969.137451,564.917175 
	C971.411743,564.917175 973.005737,564.677551 974.477722,564.998169 
	C975.526855,565.226685 976.411804,566.208740 977.370056,566.854492 
	C977.114075,567.224487 976.858154,567.594482 976.602234,567.964478 
	C972.664124,567.964478 968.725952,567.964478 963.067139,567.964478 
	C966.037415,563.010132 968.552551,558.815063 971.247070,554.225708 
z"/>
<path fill="#077CC2" opacity="1.000000" stroke="none" 
	d="
M953.821594,585.128662 
	C953.821777,582.536011 953.821777,580.414795 953.821777,578.220947 
	C957.695129,578.220947 961.125427,578.220947 964.555725,578.220947 
	C964.697937,578.767456 964.840210,579.314026 964.982483,579.860535 
	C963.565857,580.269226 962.085693,580.535522 960.751953,581.130127 
	C959.615173,581.636902 958.646729,582.521362 957.603821,583.238770 
	C958.574707,584.037170 959.466187,584.972046 960.538452,585.596191 
	C961.649536,586.242920 962.935852,586.588562 964.145569,587.065857 
	C963.979736,587.565063 963.813904,588.064270 963.648071,588.563477 
	C961.868958,588.739136 960.089844,588.914734 958.324158,589.089050 
	C957.616516,592.239014 957.616516,592.239014 964.649963,594.652832 
	C964.719421,595.144104 964.788879,595.635315 964.858276,596.126587 
	C961.362488,596.424927 957.866638,596.723206 953.821411,597.068420 
	C953.821411,592.846924 953.821411,589.223511 953.821594,585.128662 
z"/>
<path fill="#077CC2" opacity="1.000000" stroke="none" 
	d="
M1083.422119,585.101685 
	C1083.422241,582.646667 1083.422241,580.668274 1083.422241,578.329102 
	C1087.127319,578.329102 1090.510010,578.329102 1093.892700,578.329102 
	C1094.051636,578.773315 1094.210449,579.217529 1094.369263,579.661682 
	C1092.989502,580.139587 1091.565796,580.521362 1090.244019,581.126038 
	C1089.199341,581.603882 1088.280029,582.355530 1087.305054,582.985596 
	C1088.034546,583.852417 1088.616089,584.954895 1089.529785,585.528198 
	C1090.756348,586.297913 1092.239258,586.658813 1093.612183,587.195312 
	C1092.118286,587.765991 1090.628174,588.347107 1089.128174,588.901184 
	C1088.673340,589.069214 1088.190674,589.162476 1087.539917,589.339111 
	C1086.123779,595.859131 1091.827515,592.661499 1094.018188,594.110840 
	C1093.363525,597.246460 1092.533447,597.437927 1083.421875,596.325867 
	C1083.421875,592.805359 1083.421875,589.191895 1083.422119,585.101685 
z"/>
<path fill="#1D3A79" opacity="1.000000" stroke="none" 
	d="
M1110.461426,552.434937 
	C1111.260132,554.027405 1111.894287,555.280090 1112.529541,556.535156 
	C1116.044067,554.820679 1114.544434,548.265625 1121.082153,549.574463 
	C1119.783691,552.152771 1118.453979,554.348938 1117.548340,556.707825 
	C1116.505127,559.425293 1115.961914,562.332947 1114.950439,565.065063 
	C1114.468628,566.366577 1113.405518,567.452820 1112.002075,569.529846 
	C1110.855347,564.712769 1110.394531,561.473633 1109.282227,558.476257 
	C1108.204712,555.572205 1106.457397,552.916748 1105.004395,550.152100 
	C1105.349487,549.709778 1105.694580,549.267456 1106.039673,548.825134 
	C1107.458740,549.915161 1108.877930,551.005127 1110.461426,552.434937 
z"/>
<path fill="#077CC2" opacity="1.000000" stroke="none" 
	d="
M1034.972046,579.926025 
	C1035.990601,581.804260 1036.851685,583.322876 1037.707275,584.831726 
	C1041.231445,583.305603 1039.909668,576.491577 1045.087769,578.136719 
	C1043.326416,583.978760 1041.636353,589.709717 1039.824341,595.401917 
	C1039.643311,595.970398 1038.596924,596.760498 1038.170776,596.644470 
	C1037.417114,596.439270 1036.465332,595.736450 1036.233887,595.032410 
	C1034.410278,589.484619 1032.737671,583.887268 1030.851196,577.761963 
	C1032.025513,578.296631 1033.420044,578.931519 1034.972046,579.926025 
z"/>
<path fill="#1D3A79" opacity="1.000000" stroke="none" 
	d="
M900.980347,565.371704 
	C900.077087,566.749512 899.174072,567.703430 898.271118,568.657349 
	C897.875549,568.365906 897.479919,568.074524 897.084351,567.783142 
	C897.084351,563.018127 897.084351,558.253052 897.084351,553.219910 
	C895.362976,552.762268 893.843628,552.358337 891.297729,551.681519 
	C892.462585,550.616394 893.145447,549.448486 893.942261,549.364807 
	C896.399231,549.106628 898.917725,549.080322 901.376648,549.323730 
	C902.933655,549.477844 904.427185,550.273865 905.949158,550.781921 
	C904.581482,551.576050 903.213867,552.370117 900.980713,553.666626 
	C900.980713,556.815552 900.980713,560.881714 900.980347,565.371704 
z"/>
<path fill="#077CC2" opacity="1.000000" stroke="none" 
	d="
M993.860229,591.642029 
	C993.860535,588.062744 993.860535,584.935730 993.860535,582.283875 
	C991.706482,581.190613 990.132080,580.391541 988.557617,579.592468 
	C988.725891,579.163147 988.894104,578.733765 989.062378,578.304443 
	C993.571655,578.304443 998.080994,578.304443 1002.590271,578.304443 
	C1002.760742,578.742798 1002.931213,579.181091 1003.101746,579.619446 
	C1001.529175,580.377075 999.956604,581.134705 997.848083,582.150635 
	C997.848083,585.142273 998.051575,588.613037 997.758423,592.041321 
	C997.620483,593.654968 996.527710,595.186951 995.867432,596.755859 
	C995.198242,595.202026 994.529114,593.648193 993.860229,591.642029 
z"/>
<path fill="#077CC2" opacity="1.000000" stroke="none" 
	d="
M1071.075684,595.834778 
	C1070.925537,590.988647 1070.925537,586.518494 1070.925537,582.263367 
	C1068.875000,581.258667 1067.254028,580.464417 1065.633057,579.670227 
	C1065.763184,579.254456 1065.893311,578.838745 1066.023315,578.422974 
	C1070.525757,578.422974 1075.028198,578.422974 1079.530640,578.422974 
	C1079.723633,578.794128 1079.916626,579.165283 1080.109741,579.536438 
	C1078.597412,580.288391 1077.085205,581.040405 1074.860840,582.146484 
	C1074.860840,585.640625 1074.817993,589.742432 1074.875610,593.842834 
	C1074.915283,596.672485 1073.797729,597.509949 1071.075684,595.834778 
z"/>
<path fill="#FFFFFF" opacity="1.000000" stroke="none" 
	d="
M815.026367,553.651855 
	C815.648315,556.823792 816.774414,559.993530 815.924866,562.491394 
	C815.400452,564.033508 811.866516,564.552124 809.155579,565.766846 
	C808.942505,563.718384 808.796631,562.926697 808.788940,562.133667 
	C808.760437,559.197876 808.777588,556.261658 808.777588,552.636597 
	C811.017944,552.912659 812.857117,553.139282 815.026367,553.651855 
z"/>
<path fill="#FFFFFF" opacity="1.000000" stroke="none" 
	d="
M917.201782,553.105591 
	C919.301758,558.302917 916.149963,557.971130 912.779297,557.726868 
	C911.830444,553.960022 912.084717,551.514771 917.201782,553.105591 
z"/>
<path fill="#FFFFFF" opacity="1.000000" stroke="none" 
	d="
M1077.983154,554.358032 
	C1078.002686,558.715332 1075.251709,557.845764 1072.547852,557.717102 
	C1072.547852,556.118286 1072.547852,554.606506 1072.547852,552.056152 
	C1074.610107,552.795776 1076.249146,553.383667 1077.983154,554.358032 
z"/>
<path fill="#FFFFFF" opacity="1.000000" stroke="none" 
	d="
M1000.888550,552.675171 
	C1005.988098,553.124390 1007.637268,556.088318 1006.855408,560.226196 
	C1006.049988,564.488037 1002.809998,565.334167 998.406494,564.626953 
	C998.406494,561.309021 998.280151,558.054382 998.500000,554.823303 
	C998.551636,554.064697 999.773132,553.385620 1000.888550,552.675171 
z"/>
</svg>