<?xml version="1.0" encoding="utf-8"?>
<!-- Generator: Adobe Illustrator 28.0.0, SVG Export Plug-In . SVG Version: 6.00 Build 0)  -->
<svg version="1.1" id="Layer_1" xmlns="http://www.w3.org/2000/svg" xmlns:xlink="http://www.w3.org/1999/xlink" x="0px" y="0px"
	 viewBox="0 0 40 40" style="enable-background:new 0 0 40 40;" xml:space="preserve">
<style type="text/css">
	.st0{fill:#FFFFFF;}
	.st1{fill:#35D9FF;}
	.st2{fill:#0A92E8;}
</style>
<g>
	<g>
		<path class="st0" d="M24.14,35.96c0.79-1.38,1.56-2.7,2.3-4.02c0.17-0.3,0.36-0.44,0.7-0.41c0.3,0.03,0.61,0.02,0.92,0
			c0.28-0.02,0.38,0.1,0.38,0.37c-0.01,1.61,0,3.23,0,4.84c0,0.57,0,1.14,0,1.72c0,0.52,0,0.52-0.53,0.52c-0.22,0-0.45-0.01-0.67,0
			c-0.26,0.01-0.36-0.1-0.35-0.36c0.01-1.34,0.01-2.68,0.01-4.01c0-0.08,0-0.15-0.07-0.26c-0.89,1.51-1.78,3.02-2.71,4.58
			c-0.93-1.56-1.83-3.06-2.72-4.56c-0.02,0.01-0.04,0.01-0.06,0.02c0,0.08,0,0.15,0,0.23c0,1.35,0,2.7,0.01,4.04
			c0,0.21-0.07,0.3-0.28,0.3c-0.34,0-0.67,0-1.01,0.01c-0.21,0-0.29-0.09-0.29-0.3c0-2.26,0-4.51,0-6.77c0-0.26,0.11-0.38,0.37-0.37
			c0.28,0.01,0.56,0.03,0.83-0.01c0.41-0.05,0.62,0.13,0.82,0.47c0.67,1.18,1.37,2.34,2.07,3.51
			C23.92,35.65,24.02,35.77,24.14,35.96z"/>
		<path class="st0" d="M3.72,35.28c0-1.1,0-2.21,0-3.31c0-0.36,0.07-0.44,0.43-0.43c0.97,0.01,1.94-0.02,2.91,0.06
			c1.88,0.14,3.31,1.66,3.4,3.54c0.08,1.77-1.29,3.49-3.09,3.75C6.41,39.01,5.44,38.97,4.48,39c-0.89,0.02-0.77,0.02-0.77-0.77
			C3.71,37.24,3.71,36.26,3.72,35.28C3.71,35.28,3.71,35.28,3.72,35.28z M5.34,33.04c0,1.52,0,2.98,0,4.48
			C5.91,37.49,6.46,37.5,7,37.41c1.11-0.18,1.85-1.07,1.86-2.15c0.01-1.01-0.74-1.93-1.81-2.13C6.51,33.04,5.94,33.07,5.34,33.04z"
			/>
		<path class="st0" d="M13.75,33.07c0,0.52,0,1.01,0,1.54c0.12,0,0.23,0,0.34,0c0.87,0,1.74,0,2.6-0.01c0.27,0,0.4,0.1,0.39,0.38
			c-0.01,0.21-0.01,0.43,0,0.64c0.01,0.27-0.12,0.38-0.39,0.38c-0.86-0.01-1.72,0-2.57,0c-0.11,0-0.22,0-0.35,0c0,0.5,0,0.98,0,1.48
			c0.1,0.01,0.19,0.02,0.27,0.02c1.12,0,2.25-0.01,3.37-0.01c0.38,0,0.42,0.04,0.42,0.43c0,0.25,0,0.49,0,0.74
			c0,0.22-0.09,0.32-0.31,0.32c-1.7,0-3.39,0-5.09,0.01c-0.22,0-0.28-0.1-0.28-0.3c0-2.26,0-4.51,0-6.77c0-0.25,0.11-0.37,0.37-0.37
			c1.6,0.01,3.21,0.01,4.81,0c0.27,0,0.4,0.11,0.39,0.38c-0.01,0.26-0.01,0.51,0,0.77c0.01,0.28-0.12,0.38-0.39,0.38
			c-1.1-0.01-2.21,0-3.31,0C13.94,33.06,13.86,33.07,13.75,33.07z"/>
		<path class="st0" d="M33.48,39.06c-0.99,0.02-1.87-0.31-2.67-0.85c-0.34-0.23-0.35-0.33-0.13-0.67c0.1-0.15,0.2-0.31,0.3-0.46
			c0.22-0.32,0.31-0.34,0.65-0.12c0.69,0.47,1.43,0.74,2.28,0.58c0.05-0.01,0.1-0.02,0.15-0.03c0.41-0.13,0.68-0.41,0.66-0.71
			c-0.02-0.39-0.3-0.59-0.63-0.66c-0.51-0.11-1.02-0.18-1.54-0.25c-0.9-0.13-1.62-0.51-1.92-1.43c-0.3-0.91,0.14-2.01,1-2.55
			c1.24-0.77,3.08-0.62,4.19,0.34c0.16,0.13,0.21,0.26,0.08,0.45c-0.15,0.22-0.28,0.45-0.42,0.68c-0.13,0.23-0.3,0.25-0.51,0.1
			c-0.39-0.28-0.81-0.54-1.31-0.55c-0.37-0.01-0.75,0.06-1.1,0.16c-0.28,0.08-0.45,0.33-0.45,0.63c0.01,0.29,0.19,0.52,0.46,0.6
			c0.45,0.13,0.91,0.21,1.37,0.28c0.54,0.09,1.06,0.21,1.51,0.54c1.3,0.95,1.04,2.95-0.5,3.62C34.96,38.76,34.25,39.08,33.48,39.06z
			"/>
	</g>
	<g>
		<path class="st1" d="M13.07,5.88c-0.78,0.47-1.52,0.93-2.26,1.37c-1.26,0.74-1.69,1.99-1.16,3.36c0.05,0.12,0.04,0.3-0.01,0.42
			c-0.33,0.78-0.69,1.55-1.01,2.33c-0.08,0.19-0.18,0.26-0.38,0.25c-0.54-0.01-1.08,0-1.62,0c0.12-2.04,0.68-3.9,1.66-5.63
			c0.69-1.24,1.52-2.37,2.57-3.34c0.21-0.19,0.34-0.21,0.56-0.03C11.93,5.03,12.48,5.43,13.07,5.88z"/>
		<path class="st1" d="M33.82,13.64c-0.63,0-1.21,0.01-1.79-0.01c-0.06,0-0.15-0.09-0.18-0.16c-0.36-0.86-0.71-1.72-1.05-2.58
			c-0.04-0.11-0.04-0.26,0-0.38c0.51-1.37,0.05-2.58-1.22-3.31c-0.73-0.42-1.45-0.88-2.22-1.35c0.69-0.51,1.32-0.97,1.99-1.46
			C31.99,6.89,33.48,9.94,33.82,13.64z"/>
		<path class="st2" d="M29.3,25.28c-0.61-0.46-1.19-0.92-1.83-1.4c0.49-0.32,0.93-0.6,1.38-0.88c0.29-0.18,0.59-0.33,0.87-0.51
			c1-0.6,1.51-1.72,1.22-2.86c-0.12-0.48-0.09-0.89,0.12-1.32c0.25-0.53,0.48-1.08,0.73-1.62c0.04-0.09,0.13-0.23,0.21-0.23
			c0.59-0.02,1.18-0.01,1.8-0.01C33.34,19.94,31.87,22.87,29.3,25.28z"/>
		<path class="st2" d="M12.95,23.89c-0.62,0.46-1.21,0.89-1.82,1.34c-0.06-0.05-0.12-0.09-0.18-0.14c-2.18-2.06-3.5-4.58-4.09-7.51
			c-0.06-0.29-0.09-0.58-0.13-0.88c-0.03-0.18,0.04-0.26,0.23-0.26c0.45,0.01,0.9-0.01,1.35,0.01c0.11,0.01,0.26,0.12,0.31,0.22
			c0.35,0.75,0.68,1.5,1.01,2.27c0.04,0.1,0.02,0.25-0.02,0.35c-0.61,1.43,0.26,2.74,1.18,3.27c0.64,0.37,1.26,0.75,1.89,1.13
			C12.77,23.74,12.84,23.81,12.95,23.89z"/>
		<path class="st1" d="M11.84,3.75c1.88-1.4,3.91-2.36,6.24-2.8c0,0.32-0.03,0.6,0.01,0.87c0.1,0.66-0.16,1.05-0.74,1.37
			c-1.07,0.6-2.1,1.3-3.14,1.96c-0.16,0.1-0.27,0.11-0.43-0.01C13.16,4.68,12.53,4.24,11.84,3.75z"/>
		<path class="st1" d="M28.56,3.77c-0.72,0.51-1.41,1-2.08,1.47c-1.34-0.81-2.66-1.61-3.98-2.41c-0.07-0.04-0.14-0.13-0.15-0.21
			c-0.01-0.54-0.01-1.08-0.01-1.69C24.65,1.41,26.71,2.27,28.56,3.77z"/>
		<path class="st2" d="M11.94,25.93c0.48-0.33,0.95-0.6,1.36-0.95c0.46-0.41,0.82-0.4,1.34-0.04c1.02,0.7,2.1,1.3,3.16,1.93
			c0.2,0.12,0.28,0.27,0.27,0.5c-0.02,0.33-0.01,0.65-0.01,0.98c0.01,0.23-0.09,0.32-0.31,0.27c-0.49-0.12-0.99-0.23-1.48-0.38
			c-1.52-0.45-2.91-1.18-4.16-2.16C12.07,26.04,12.03,26.01,11.94,25.93z"/>
		<path class="st2" d="M22.37,28.65c0-0.51-0.01-0.97,0.01-1.43c0-0.09,0.12-0.21,0.21-0.27c0.87-0.55,1.74-1.09,2.62-1.64
			c0.36-0.23,0.72-0.46,1.09-0.68c0.08-0.05,0.23-0.08,0.29-0.03c0.61,0.43,1.2,0.87,1.85,1.35C26.62,27.37,24.65,28.3,22.37,28.65z
			"/>
		<path class="st1" d="M21.08,4.78c0.23-0.26,0.44-0.49,0.66-0.73c1.87,1.17,3.76,2.35,5.62,3.52c-0.22,0.24-0.4,0.46-0.62,0.66
			c-0.05,0.05-0.23,0-0.31-0.06c-1.22-0.76-2.44-1.53-3.65-2.3c-0.48-0.3-0.97-0.61-1.45-0.91C21.24,4.9,21.17,4.84,21.08,4.78z"/>
		<path class="st1" d="M13.06,7.58c1.9-1.18,3.78-2.35,5.61-3.49c0.25,0.22,0.45,0.41,0.73,0.67c-1.87,1.17-3.71,2.33-5.57,3.5
			C13.59,8.05,13.35,7.84,13.06,7.58z"/>
		<path class="st2" d="M13.08,22.18c0.25-0.22,0.48-0.42,0.72-0.64c1.84,1.17,3.68,2.35,5.51,3.51c-0.01,0.07-0.01,0.08-0.01,0.09
			c-0.46,0.62-0.47,0.63-1.12,0.23c-1.6-0.99-3.19-1.98-4.79-2.97C13.3,22.33,13.2,22.26,13.08,22.18z"/>
		<path class="st2" d="M27.24,22.23c-1.81,1.15-3.65,2.31-5.51,3.49c-0.2-0.23-0.38-0.44-0.59-0.68c0.6-0.39,1.18-0.76,1.75-1.13
			c1.19-0.77,2.39-1.54,3.58-2.3c0.06-0.04,0.21-0.04,0.25,0.01C26.89,21.78,27.03,21.97,27.24,22.23z"/>
		<path class="st1" d="M11.32,11.78c0.31,0,0.59,0,0.89,0c0,2.09,0,4.17,0,6.27c-0.28,0-0.56,0-0.89,0
			C11.32,15.97,11.32,13.88,11.32,11.78z"/>
		<path class="st0" d="M19.86,4.53c0.24,0,0.45,0,0.71,0c0,0.3,0.01,0.59,0,0.88c-0.01,0.22,0.05,0.36,0.26,0.48
			c0.58,0.34,0.79,1.07,0.5,1.65c-0.28,0.56-0.98,0.83-1.6,0.6c-0.45-0.17-0.69-0.51-0.74-0.97c-0.06-0.55,0.12-1.02,0.62-1.3
			c0.22-0.12,0.27-0.26,0.25-0.48C19.85,5.12,19.86,4.84,19.86,4.53z"/>
		<path class="st1" d="M29.13,18.08c-0.3-0.02-0.58-0.05-0.88-0.07c0-2.07,0-4.14,0-6.23c0.29,0,0.57,0,0.88,0
			C29.13,13.87,29.13,15.95,29.13,18.08z"/>
		<path class="st0" d="M20.56,25.3c-0.25-0.03-0.44-0.06-0.69-0.09c0-0.3-0.02-0.62,0.01-0.93c0.02-0.22-0.05-0.34-0.25-0.45
			c-0.45-0.25-0.65-0.67-0.61-1.18c0.05-0.52,0.4-0.95,0.87-1.07c0.5-0.13,0.93,0.01,1.26,0.4c0.45,0.53,0.28,1.45-0.34,1.81
			c-0.2,0.12-0.26,0.24-0.25,0.45C20.57,24.6,20.56,24.94,20.56,25.3z"/>
		<path class="st0" d="M28.49,21.51c-0.66,0-1.21-0.53-1.21-1.17c0-0.75,0.54-1.32,1.24-1.32c0.71,0,1.26,0.54,1.26,1.22
			C29.77,20.97,29.22,21.51,28.49,21.51z"/>
		<path class="st0" d="M29.77,9.46c0,0.68-0.58,1.24-1.3,1.24c-0.65,0-1.22-0.56-1.21-1.21c0.01-0.72,0.57-1.28,1.26-1.28
			C29.21,8.22,29.77,8.78,29.77,9.46z"/>
		<path class="st0" d="M11.87,21.52c-0.66-0.01-1.23-0.57-1.21-1.21c0.01-0.71,0.58-1.28,1.26-1.27c0.69,0.01,1.24,0.57,1.24,1.25
			C13.15,21,12.6,21.53,11.87,21.52z"/>
		<path class="st0" d="M10.65,9.5c0.01-0.71,0.56-1.29,1.24-1.29c0.69,0,1.27,0.59,1.26,1.27c0,0.66-0.6,1.23-1.28,1.22
			C11.22,10.7,10.64,10.13,10.65,9.5z"/>
		<path class="st0" d="M13.29,11.12c0.17-0.22,0.32-0.4,0.5-0.62c1.68,1.05,3.35,2.08,5.03,3.13c-0.13,0.24-0.24,0.44-0.37,0.67
			C16.72,13.24,15.02,12.19,13.29,11.12z"/>
		<path class="st0" d="M21.59,16.11c0.13-0.21,0.25-0.41,0.4-0.64c1.72,1.07,3.41,2.12,5.13,3.18c-0.16,0.22-0.31,0.42-0.47,0.63
			C24.97,18.23,23.29,17.18,21.59,16.11z"/>
		<path class="st2" d="M20.54,20.59c-0.7,0.08-0.7,0.08-0.71-0.57c0-1.08,0.02-2.16,0.01-3.24c0-0.33,0.19-0.29,0.39-0.3
			c0.22-0.01,0.33,0.03,0.33,0.3c-0.01,1.19-0.01,2.39-0.01,3.58C20.56,20.44,20.54,20.51,20.54,20.59z"/>
		<path class="st2" d="M20.56,13.33c-0.84,0-0.71,0.06-0.72-0.63c-0.01-1.02-0.01-2.04,0-3.06c0-0.11,0.05-0.29,0.11-0.31
			c0.17-0.04,0.36-0.01,0.54,0c0.03,0,0.06,0.1,0.06,0.15C20.56,10.77,20.56,12.04,20.56,13.33z"/>
		<path class="st1" d="M24.51,8.34c0.45,0.27,0.87,0.52,1.28,0.78c0.18,0.11,0.16,0.62-0.02,0.75c-0.29,0.2-0.59,0.4-0.89,0.6
			c-0.4-0.27-0.79-0.53-1.22-0.81C23.94,9.21,24.22,8.79,24.51,8.34z"/>
		<path class="st1" d="M15.97,21.47c-0.45-0.26-0.86-0.49-1.26-0.72c-0.2-0.12-0.2-0.7,0-0.82c0.28-0.18,0.57-0.35,0.87-0.52
			c0.38,0.24,0.76,0.49,1.18,0.76C16.5,20.59,16.24,21.02,15.97,21.47z"/>
		<path class="st1" d="M15.57,10.46c-0.23-0.15-0.44-0.28-0.65-0.4c-0.33-0.18-0.45-0.45-0.34-0.81c0.02-0.05,0.06-0.1,0.11-0.13
			c0.39-0.24,0.78-0.48,1.2-0.75c0.28,0.42,0.55,0.84,0.83,1.27C16.33,9.92,15.96,10.19,15.57,10.46z"/>
		<path class="st1" d="M24.5,21.48c-0.28-0.45-0.55-0.87-0.82-1.3c0.37-0.25,0.72-0.48,1.07-0.7c0.06-0.04,0.19,0,0.26,0.04
			c0.25,0.14,0.49,0.3,0.73,0.45c0.22,0.13,0.24,0.54,0.03,0.69C25.37,20.92,24.96,21.18,24.5,21.48z"/>
		<path class="st0" d="M18.45,15.46c0.12,0.21,0.24,0.41,0.37,0.64c-0.86,0.55-1.73,1.11-2.62,1.69c-0.16-0.23-0.32-0.44-0.49-0.69
			C16.63,16.55,17.54,16,18.45,15.46z"/>
		<path class="st1" d="M22.53,7.16c0.48,0.31,0.98,0.62,1.5,0.95c-0.28,0.44-0.54,0.85-0.81,1.28c-0.39-0.24-0.75-0.45-1.09-0.69
			c-0.06-0.04-0.1-0.21-0.08-0.29C22.19,8.02,22.35,7.63,22.53,7.16z"/>
		<path class="st1" d="M16.36,8.11c0.52-0.32,1-0.62,1.49-0.92c0.19,0.47,0.37,0.93,0.57,1.43c-0.33,0.22-0.69,0.46-1.07,0.69
			c-0.05,0.03-0.21,0-0.24-0.06C16.85,8.89,16.62,8.51,16.36,8.11z"/>
		<path class="st1" d="M13.46,12.59c0.59,0.36,1.13,0.69,1.71,1.04c-0.22,0.34-0.4,0.65-0.62,0.95c-0.05,0.07-0.21,0.1-0.32,0.1
			c-0.81,0.01-0.81,0-0.81-0.79c0-0.32,0-0.63,0-0.95C13.42,12.84,13.44,12.74,13.46,12.59z"/>
		<path class="st1" d="M22.54,22.65c-0.19-0.5-0.36-0.96-0.55-1.45c0.38-0.23,0.78-0.47,1.22-0.74c0.27,0.41,0.52,0.81,0.81,1.24
			C23.52,22.02,23.03,22.33,22.54,22.65z"/>
		<path class="st0" d="M22,14.33c-0.16-0.25-0.3-0.47-0.45-0.7c0.85-0.5,1.68-1,2.54-1.51c0.16,0.19,0.32,0.39,0.49,0.59
			C23.71,13.26,22.87,13.79,22,14.33z"/>
		<path class="st1" d="M17.24,20.45c0.41,0.26,0.79,0.51,1.19,0.76c-0.18,0.46-0.36,0.89-0.56,1.38c-0.48-0.28-0.96-0.55-1.47-0.85
			C16.69,21.3,16.96,20.89,17.24,20.45z"/>
		<path class="st1" d="M26.94,12.64c0,0.7,0,1.33,0,2.02c-0.33,0-0.66,0.01-0.98-0.01c-0.06,0-0.14-0.06-0.17-0.11
			c-0.18-0.29-0.36-0.59-0.55-0.92C25.82,13.29,26.36,12.98,26.94,12.64z"/>
		<path class="st0" d="M13.44,17.19c0-0.67,0-1.27,0.01-1.87c0-0.05,0.1-0.13,0.16-0.13c0.27-0.01,0.55-0.01,0.83,0
			c0.06,0,0.14,0.05,0.17,0.1c0.17,0.28,0.33,0.56,0.51,0.88C14.56,16.51,14.04,16.83,13.44,17.19z"/>
		<path class="st1" d="M15.61,15.88c-0.19-0.29-0.38-0.57-0.55-0.85c-0.04-0.06-0.04-0.18,0-0.24c0.17-0.28,0.36-0.54,0.56-0.84
			c0.4,0.24,0.79,0.46,1.16,0.7c0.18,0.12,0.14,0.46-0.05,0.6c-0.07,0.05-0.14,0.09-0.21,0.13C16.22,15.53,15.92,15.7,15.61,15.88z"
			/>
		<path class="st1" d="M24.85,15.88c-0.41-0.23-0.79-0.43-1.15-0.65c-0.24-0.14-0.25-0.53,0-0.68c0.35-0.21,0.71-0.4,1.1-0.62
			c0.19,0.29,0.38,0.57,0.56,0.86c0.03,0.05,0.01,0.14-0.02,0.19C25.19,15.28,25.03,15.57,24.85,15.88z"/>
		<path class="st1" d="M26.95,15.19c0,0.65,0,1.25,0,1.91c-0.57-0.34-1.1-0.66-1.66-0.99c0.17-0.29,0.32-0.55,0.48-0.8
			c0.04-0.06,0.13-0.11,0.2-0.11C26.28,15.19,26.6,15.19,26.95,15.19z"/>
		<path class="st1" d="M21.81,18.07c0.34,0.55,0.67,1.09,1.02,1.64c0.11,0.18,0.12,0.3-0.09,0.42c-0.33,0.2-0.65,0.42-1.01,0.67
			c0-0.94,0-1.83,0-2.71C21.75,18.08,21.78,18.08,21.81,18.07z"/>
		<path class="st1" d="M18.69,18.05c0,0.89,0,1.78,0,2.72c-0.42-0.28-0.8-0.53-1.21-0.81c0.39-0.65,0.78-1.29,1.16-1.93
			C18.66,18.04,18.68,18.05,18.69,18.05z"/>
		<path class="st1" d="M17.49,9.83c0.41-0.27,0.77-0.52,1.2-0.81c0,0.92,0,1.78,0,2.65c-0.02,0.01-0.04,0.03-0.06,0.04
			C18.25,11.09,17.88,10.48,17.49,9.83z"/>
		<path class="st1" d="M21.72,11.67c0-0.84,0-1.68,0-2.58c0.4,0.23,0.79,0.45,1.22,0.7c-0.38,0.65-0.76,1.28-1.13,1.91
			C21.78,11.69,21.75,11.68,21.72,11.67z"/>
		<path class="st2" d="M24.63,11.9c0.68-0.45,1.33-0.87,2.01-1.32c0.15,0.2,0.29,0.37,0.45,0.57c-0.65,0.41-1.26,0.8-1.88,1.18
			c-0.05,0.03-0.17-0.01-0.23-0.06C24.86,12.18,24.77,12.06,24.63,11.9z"/>
		<path class="st0" d="M20.19,15.58c-0.39,0-0.7-0.3-0.7-0.66c0-0.38,0.37-0.76,0.74-0.75c0.37,0.01,0.7,0.35,0.7,0.72
			C20.93,15.27,20.59,15.59,20.19,15.58z"/>
		<path class="st0" d="M20.89,26.8c0,0.42-0.27,0.69-0.69,0.68c-0.36-0.01-0.66-0.3-0.67-0.66c0-0.38,0.32-0.72,0.69-0.71
			C20.59,26.11,20.89,26.42,20.89,26.8z"/>
		<path class="st0" d="M20.18,3.67c-0.37-0.01-0.65-0.3-0.65-0.67c0-0.4,0.31-0.71,0.69-0.7c0.39,0.01,0.66,0.29,0.66,0.69
			C20.88,3.39,20.59,3.68,20.18,3.67z"/>
		<path class="st2" d="M15.12,17.64c0.14,0.2,0.25,0.36,0.39,0.56c-0.57,0.36-1.13,0.71-1.7,1.07c-0.13-0.19-0.24-0.36-0.38-0.57
			C13.99,18.34,14.54,18,15.12,17.64z"/>
		<path class="st0" d="M10.11,14.85c0,0.39-0.27,0.65-0.68,0.66c-0.39,0-0.67-0.25-0.68-0.62c-0.01-0.37,0.29-0.68,0.67-0.68
			C9.79,14.19,10.1,14.49,10.11,14.85z"/>
		<path class="st0" d="M31.08,15.51c-0.4,0-0.7-0.27-0.71-0.64c0-0.36,0.32-0.68,0.69-0.67c0.35,0,0.67,0.32,0.68,0.66
			C31.75,15.22,31.46,15.51,31.08,15.51z"/>
		<path class="st1" d="M17.03,19.72c-0.33-0.2-0.62-0.38-0.95-0.59c0.64-0.39,1.24-0.77,1.85-1.14c0.03,0.02,0.05,0.05,0.08,0.07
			C17.68,18.61,17.36,19.15,17.03,19.72z"/>
		<path class="st1" d="M22.44,11.7c0.31-0.52,0.63-1.03,0.96-1.59c0.3,0.18,0.57,0.35,0.92,0.57c-0.64,0.39-1.23,0.74-1.81,1.1
			C22.49,11.75,22.46,11.73,22.44,11.7z"/>
		<path class="st1" d="M22.57,18.07c0.58,0.35,1.16,0.7,1.78,1.08c-0.32,0.21-0.6,0.39-0.91,0.59c-0.32-0.55-0.63-1.08-0.94-1.6
			C22.52,18.11,22.54,18.09,22.57,18.07z"/>
		<path class="st1" d="M16.1,10.7c0.34-0.22,0.61-0.4,0.9-0.6c0.32,0.52,0.63,1.02,0.94,1.53c-0.02,0.02-0.04,0.04-0.06,0.07
			C17.31,11.38,16.74,11.06,16.1,10.7z"/>
		<path class="st1" d="M10.27,12.55c0,0.33,0,0.67,0,1.03c-0.14-0.03-0.27-0.06-0.44-0.11c0.14-0.33,0.26-0.63,0.38-0.94
			C10.23,12.53,10.25,12.54,10.27,12.55z"/>
		<path class="st1" d="M9.83,16.32c0.16-0.05,0.28-0.1,0.43-0.14c0,0.34,0,0.65,0,0.96c-0.02,0.01-0.04,0.01-0.06,0.02
			C10.08,16.89,9.96,16.62,9.83,16.32z"/>
		<path class="st1" d="M30.58,16.35c-0.13,0.3-0.24,0.56-0.36,0.82c-0.02-0.01-0.04-0.01-0.06-0.02c0-0.31,0-0.61,0-0.96
			C30.29,16.25,30.4,16.29,30.58,16.35z"/>
		<path class="st1" d="M30.6,13.45c-0.17,0.04-0.3,0.07-0.45,0.1c0-0.31,0-0.59,0-0.87c0.02-0.01,0.04-0.02,0.06-0.03
			C30.33,12.91,30.46,13.16,30.6,13.45z"/>
	</g>
</g>
</svg>
